<?xml version="1.0" standalone="no"?>
<!DOCTYPE svg PUBLIC "-//W3C//DTD SVG 20010904//EN"
 "http://www.w3.org/TR/2001/REC-SVG-20010904/DTD/svg10.dtd">
<svg version="1.0" xmlns="http://www.w3.org/2000/svg"
 width="331.000000pt" height="331.000000pt" viewBox="0 0 331.000000 331.000000"
 preserveAspectRatio="xMidYMid meet">
<metadata>
Created by potrace 1.14, written by Peter Selinger 2001-2017
</metadata>
<g transform="translate(0.000000,331.000000) scale(0.100000,-0.100000)"
fill="#000000" stroke="none">
<path d="M2740 3138 c-27 -29 -61 -74 -77 -100 -25 -42 -73 -78 -95 -70 -5 1
-34 -7 -65 -18 -32 -11 -67 -21 -78 -23 -11 -1 -27 -7 -35 -12 -19 -12 -495
-16 -525 -5 -12 5 -39 11 -59 14 -21 4 -41 8 -45 11 -10 6 -59 15 -106 20 -22
3 -60 9 -85 15 -25 5 -58 12 -75 14 -16 3 -97 24 -180 46 -82 22 -170 46 -195
52 -25 6 -57 19 -71 29 -35 25 -76 34 -93 20 -9 -8 -12 -28 -10 -64 12 -151
11 -608 -1 -692 -7 -49 -15 -112 -19 -140 -3 -27 -9 -70 -12 -95 -6 -43 -10
-70 -13 -97 -1 -9 -24 -13 -78 -14 -92 0 -220 -36 -214 -60 1 -8 5 -37 8 -64
4 -39 1 -54 -11 -64 -9 -7 -16 -17 -16 -22 0 -11 82 -71 198 -143 50 -32 92
-61 92 -64 0 -7 -188 -606 -308 -982 -39 -122 -40 -125 -19 -128 28 -5 46 22
85 131 19 50 42 111 53 134 10 24 19 46 19 49 0 3 6 20 14 37 8 18 52 130 98
249 80 208 84 217 118 232 68 31 192 53 277 51 106 -4 314 -23 321 -30 5 -5 5
-38 -3 -170 -13 -211 -13 -248 6 -250 27 -4 36 8 42 55 20 151 28 209 34 240
7 37 10 69 12 108 1 32 29 29 117 -14 107 -51 120 -66 127 -144 4 -36 9 -85
12 -110 3 -25 7 -72 9 -105 5 -56 11 -125 21 -220 2 -22 7 -69 10 -105 3 -36
7 -83 10 -105 2 -22 7 -67 10 -100 3 -33 8 -73 10 -90 2 -16 7 -73 11 -125 7
-97 14 -112 49 -108 19 3 20 10 18 138 -1 139 -10 424 -18 610 -3 58 -7 193
-10 300 -3 107 -8 196 -10 198 -2 3 0 13 6 23 8 16 20 18 92 14 72 -3 153 -17
161 -27 2 -1 76 -145 164 -317 116 -229 166 -317 182 -323 46 -17 45 -8 -30
157 -10 22 -57 130 -105 240 -48 110 -96 220 -107 245 -61 135 -65 150 -34
150 19 0 126 72 165 111 19 19 50 59 69 89 19 30 51 72 70 94 39 43 88 143 97
196 3 19 13 62 22 95 17 68 13 165 -11 231 l-14 42 35 33 c53 51 95 143 110
237 8 56 9 282 1 332 -12 73 -29 133 -43 154 -8 11 -15 28 -15 38 0 30 -20 20
-70 -34z"/>
</g>
</svg>
