<svg width="333" height="168" viewBox="0 0 333 168" fill="none" xmlns="http://www.w3.org/2000/svg">
<path d="M331.644 38.5493C329.69 35.5738 326.309 34.7307 323.274 33.7719C318.495 32.2511 313.671 30.7303 308.802 29.5732C307.329 29.226 306.187 31.623 307.72 32.4164C310.109 33.6562 312.559 34.7307 315.008 35.8383C317.638 37.0285 321.741 37.9707 323.98 39.8386C324.1 39.9378 324.205 40.0535 324.326 40.1527C303.272 57.8404 276.688 66.8 250.209 63.7253C249.412 63.6261 248.616 63.5269 247.819 63.4112C255.544 57.8735 261.224 49.6413 262.577 38.0533C264.906 18.0514 250.945 -0.0165192 232.416 1.13342e-05C215.374 0.0165419 201.474 18.3985 204.78 36.8962C207.41 51.5588 218.2 60.3531 230.507 65.2957C207.77 71.7591 180.871 62.5351 160.328 53.6747C136.208 43.277 109.849 28.4656 83.3856 37.7062C64.105 44.4507 50.0841 63.7418 48.3559 85.8928C48.3108 86.4383 48.2808 86.9838 48.2657 87.5458C41.5033 89.8105 35.1165 93.1497 29.8718 97.0013C8.77281 112.441 -2.21248 139.419 0.372295 166.975C0.492517 168.298 2.38601 168.347 2.29585 166.975C0.312184 137.22 14.2429 108.292 39.174 95.5301C42.0142 94.0754 45.0648 92.786 48.2207 91.7281C48.8218 111.284 59.2811 135.881 78.9224 136.542C97.7071 137.171 103.102 111.647 93.0034 97.7286C83.4908 84.6034 68.1024 82.5536 53.6006 86.0085C54.5323 74.9826 58.7401 64.5022 65.8332 56.3361C87.4581 31.4246 119.407 41.3429 144.669 52.7655C168.954 63.7418 194.05 74.9495 220.875 72.6187C227.126 72.0732 233.483 70.6516 239.314 68.1555C243.942 69.3457 248.556 70.073 252.839 70.4367C279.287 72.7179 305.856 63.841 327.046 46.4509C327.046 48.418 326.595 50.5339 326.309 52.8151C325.858 56.4519 325.378 60.072 324.987 63.7253C324.611 67.2298 330.126 68.0728 330.622 64.5684C331.359 59.2786 331.96 53.9557 332.561 48.6329C332.967 45.1284 333.628 41.5909 331.644 38.5493ZM82.3186 93.7448C93.7097 101.2 100.517 126.029 82.7695 130.608C65.8933 134.972 55.1034 110.738 53.6607 96.1417C53.4653 94.158 53.3902 92.1909 53.4052 90.2238C63.2634 87.8599 73.7528 88.1409 82.3186 93.7448ZM239.479 61.7416C231.093 59.5596 222.978 55.6914 216.967 48.9305C207.199 37.9542 207.981 20.845 219.161 11.3234C230.372 1.76878 247.203 6.94284 254.026 20.1177C261.359 34.2678 255.048 52.3027 242.695 59.9233C241.643 60.5845 240.561 61.1796 239.479 61.7416Z" fill="#3F3E3E"/>
</svg>
