<svg aria-hidden="true" style="position: absolute; width: 0; height: 0; overflow: hidden;" version="1.1" xmlns="http://www.w3.org/2000/svg" xmlns:xlink="http://www.w3.org/1999/xlink">
<defs>
<symbol id="icon-money" viewBox="0 0 45 32">
<path d="M18.377 30.089c-0.243-0.159-0.354-0.382-0.405-0.672-0.566-3.249-1.144-6.496-1.717-9.744-0.069-0.389 0.092-0.653 0.483-0.727 0.973-0.183 1.945-0.372 2.925-0.507 0.957-0.132 1.759 0.491 1.96 1.453 0.020 0.096 0.041 0.193 0.065 0.307 0.63-0.216 1.234-0.425 1.811-0.622-0.061-0.618-0.151-1.214-0.171-1.814-0.043-1.311 0.299-2.537 0.897-3.698 1.106-2.15 2.206-4.304 3.321-6.45 0.111-0.214 0.101-0.37-0.005-0.576-0.535-1.044-1.057-2.093-1.577-3.144-0.287-0.58-0.202-1.159 0.214-1.572 0.39-0.387 0.969-0.489 1.473-0.243 0.255 0.124 0.496 0.275 0.744 0.416 0.466 0.265 0.626 0.256 1.036-0.090 0.584-0.493 1.225-0.651 1.937-0.323 0.197 0.091 0.37 0.236 0.551 0.361 0.311 0.213 0.552 0.208 0.854-0.021 0.861-0.652 1.531-0.678 2.399-0.017 0.429 0.327 0.806 0.376 1.243 0.057 0.184-0.134 0.394-0.234 0.595-0.343 0.569-0.31 1.138-0.252 1.575 0.159 0.43 0.403 0.533 0.986 0.254 1.565-0.521 1.081-1.049 2.158-1.587 3.231-0.092 0.183-0.094 0.32 0 0.506 1.174 2.311 2.338 4.627 3.501 6.944 0.11 0.22 0.199 0.454 0.276 0.688 0.101 0.307-0.034 0.594-0.311 0.704-0.272 0.109-0.558-0.017-0.704-0.311-1.23-2.477-2.462-4.952-3.684-7.434-0.103-0.209-0.215-0.29-0.453-0.289-2.312 0.010-4.625 0.008-6.936 0.001-0.216-0.001-0.338 0.054-0.443 0.261-1.095 2.156-2.202 4.307-3.309 6.456-0.709 1.376-0.941 2.82-0.643 4.344 0.010 0.054 0.023 0.108 0.039 0.16 0.008 0.026 0.025 0.048 0.013 0.026 0.643-0.134 1.263-0.317 1.894-0.382 1.382-0.142 2.624 0.274 3.738 1.090 1.229 0.899 2.451 1.806 3.691 2.69 0.601 0.428 1.085 0.907 1.074 1.707 0.834 0.092 1.536-0.112 2.124-0.708 1.282-1.299 2.577-2.587 3.869-3.877 0.7-0.698 1.555-0.864 2.357-0.451 0.486 0.25 0.817 0.639 0.974 1.17 0.026 0.086 0.065 0.168 0.098 0.252 0 0.183 0 0.367 0 0.55-0.104 0.421-0.279 0.804-0.565 1.139-0.667 0.782-1.318 1.576-1.985 2.357-0.62 0.724-1.205 1.489-1.891 2.144-1.563 1.493-3.468 2.175-5.625 2.173-2.468-0.002-4.936-0.001-7.404-0.001-0.501 0-0.761-0.191-0.757-0.556s0.255-0.545 0.766-0.545c2.477 0 4.955 0.003 7.432-0.001 2.058-0.004 3.821-0.718 5.211-2.254 0.695-0.768 1.346-1.576 2.015-2.368 0.497-0.589 1-1.172 1.482-1.773 0.425-0.528 0.185-1.235-0.454-1.381-0.363-0.083-0.638 0.081-0.883 0.327-1.296 1.299-2.595 2.594-3.889 3.895-0.479 0.481-1.032 0.84-1.701 0.948-0.467 0.076-0.949 0.051-1.425 0.078-0.094 0.006-0.211 0.017-0.275 0.074-0.656 0.578-1.363 0.598-2.117 0.221-0.925-0.464-1.864-0.903-2.776-1.393-0.629-0.338-1.262-0.576-1.988-0.482-0.062 0.008-0.128-0.003-0.192-0.013-0.273-0.041-0.471-0.258-0.478-0.521-0.007-0.258 0.18-0.511 0.456-0.534 0.703-0.055 1.398-0.094 2.065 0.256 1.127 0.591 2.272 1.15 3.421 1.7 0.189 0.090 0.459 0.144 0.647 0.081 0.498-0.166 0.518-0.769 0.054-1.109-1.345-0.987-2.691-1.975-4.043-2.953-1.040-0.753-2.202-1.044-3.461-0.769-0.641 0.14-1.259 0.387-1.884 0.596-0.762 0.255-1.521 0.52-2.302 0.789 0.112 0.642 0.221 1.263 0.33 1.884 0.257 1.471 0.527 2.94 0.767 4.413 0.13 0.801-0.338 1.599-1.090 1.866-0.35 0.124-0.731 0.167-1.099 0.239-0.672 0.132-1.345 0.257-2.017 0.385-0.128 0.001-0.256 0.001-0.385 0.001zM32.417 6.788c1.165 0 2.328-0.004 3.493 0.004 0.189 0.001 0.292-0.050 0.376-0.23 0.387-0.819 0.792-1.629 1.191-2.443 0.112-0.23 0.239-0.456 0.33-0.693 0.039-0.101 0.006-0.23 0.007-0.347-0.108 0.010-0.23-0.008-0.321 0.037-0.27 0.135-0.516 0.32-0.792 0.438-0.264 0.114-0.549 0.209-0.833 0.242-0.526 0.060-0.946-0.213-1.351-0.514-0.45-0.334-0.632-0.324-1.074 0.014-0.7 0.538-1.463 0.548-2.181 0.030-0.595-0.429-0.672-0.425-1.264 0.039-0.619 0.484-1.28 0.548-1.976 0.181-0.235-0.123-0.455-0.277-0.694-0.389-0.108-0.050-0.247-0.034-0.372-0.048 0.010 0.126-0.014 0.269 0.037 0.375 0.503 1.028 1.022 2.047 1.527 3.073 0.083 0.169 0.181 0.236 0.376 0.235 1.173-0.011 2.346-0.006 3.52-0.006zM17.42 19.938c0.529 2.996 1.053 5.966 1.582 8.967 0.821-0.151 1.616-0.279 2.402-0.449 0.374-0.081 0.535-0.409 0.465-0.815-0.305-1.751-0.614-3.501-0.921-5.251-0.127-0.722-0.252-1.443-0.382-2.165-0.089-0.492-0.343-0.752-0.759-0.693-0.787 0.11-1.568 0.263-2.386 0.405z"></path>
<path d="M30.096 16.842c-0.017-0.376 0.157-0.611 0.479-0.651 0.304-0.038 0.578 0.165 0.599 0.535 0.042 0.778 0.906 1.158 1.515 0.993 0.525-0.143 0.898-0.561 0.876-1.024-0.024-0.489-0.455-0.894-0.998-0.979-0.412-0.065-0.846-0.107-1.222-0.271-0.868-0.38-1.302-1.144-1.245-2.040 0.052-0.815 0.636-1.536 1.489-1.827 0.139-0.047 0.23-0.084 0.239-0.271 0.018-0.37 0.261-0.596 0.565-0.582 0.302 0.013 0.512 0.229 0.519 0.593 0.004 0.198 0.125 0.214 0.252 0.261 0.856 0.318 1.378 0.91 1.491 1.831 0.047 0.382-0.154 0.662-0.49 0.7-0.304 0.034-0.544-0.186-0.596-0.549-0.074-0.511-0.363-0.846-0.84-0.973-0.508-0.134-1.054 0.032-1.343 0.408-0.471 0.611-0.048 1.454 0.778 1.583 0.43 0.068 0.881 0.118 1.273 0.288 0.801 0.348 1.282 1.175 1.225 1.95-0.064 0.879-0.632 1.607-1.486 1.893-0.159 0.053-0.264 0.102-0.272 0.307-0.011 0.281-0.236 0.474-0.503 0.492-0.256 0.017-0.51-0.159-0.545-0.438-0.030-0.229-0.137-0.31-0.341-0.38-0.814-0.28-1.384-1.039-1.42-1.851z"></path>
<path d="M41.432 17.495c-0.007 0.29-0.269 0.544-0.556 0.538-0.296-0.006-0.538-0.258-0.534-0.555s0.259-0.543 0.551-0.538c0.29 0.006 0.545 0.269 0.538 0.554z"></path>
<path d="M24.662 27.891c0.289 0.005 0.543 0.265 0.538 0.553s-0.268 0.544-0.554 0.538c-0.289-0.006-0.543-0.267-0.538-0.554 0.006-0.29 0.265-0.542 0.554-0.537z"></path>
<path d="M20.178 26.419c0.289 0.003 0.541 0.259 0.539 0.55-0.001 0.295-0.25 0.54-0.547 0.538-0.299-0.002-0.538-0.245-0.536-0.546 0.002-0.294 0.253-0.544 0.543-0.542z"></path>
</symbol>
<symbol id="icon-call" viewBox="0 0 45 32">
<path d="M37.84 30.568c-0.588-0.119-1.115-0.344-1.511-0.824-0.346-0.42-0.532-0.901-0.532-1.436-0.007-3.044-0.016-6.088 0.003-9.132 0.006-0.967 0.487-1.694 1.38-2.075 0.869-0.371 1.695-0.219 2.41 0.405 0.515 0.449 0.733 1.044 0.757 1.689 0.381 0.169 0.74 0.329 1.108 0.491-0.004 0.004 0.019-0.008 0.019-0.019-0.034-1.477 0.007-2.961-0.126-4.43-0.143-1.567-0.752-3.005-1.62-4.321-0.046-0.070-0.162-0.131-0.248-0.134-0.8-0.021-1.462-0.346-2.033-0.888-1.445-1.37-3.173-2.19-5.111-2.564-2.491-0.481-4.858-0.080-7.102 1.099-0.847 0.445-1.569 1.056-2.282 1.682-0.472 0.415-1.030 0.637-1.657 0.652-0.221 0.006-0.328 0.094-0.432 0.28-0.837 1.494-1.249 3.12-1.515 4.794-0.204 1.28-0.175 2.568-0.166 3.86 0.377-0.168 0.743-0.331 1.131-0.503 0.024-0.645 0.242-1.24 0.757-1.689 0.715-0.624 1.541-0.777 2.41-0.405 0.904 0.387 1.358 1.124 1.383 2.103 0.019 0.749 0.004 1.498 0.004 2.247 0 2.124-0.037 4.249 0.014 6.372 0.032 1.359-0.567 2.475-2.062 2.744-0.152 0-0.304 0-0.455 0-0.017-0.009-0.033-0.023-0.051-0.025-1.112-0.143-1.938-1.068-2-2.15-0.004-0.076-0.113-0.185-0.195-0.211-0.996-0.315-1.657-0.962-1.959-1.963-0.046-0.15-0.11-0.203-0.267-0.223-1.348-0.175-2.127-1.065-2.128-2.424-0.004-2.226-0.006-4.455-0.001-6.683 0.002-1.199 0.132-2.383 0.424-3.547 0.41-1.632 1.093-3.142 2.030-4.54 0.079-0.118 0.115-0.297 0.1-0.44-0.101-0.979 0.178-1.82 0.887-2.503 2.501-2.408 5.507-3.766 8.922-4.26 0.448-0.065 0.899-0.11 1.349-0.164 0.569 0 1.138 0 1.707 0 0.073 0.016 0.145 0.038 0.219 0.048 0.824 0.118 1.66 0.183 2.471 0.362 2.872 0.635 5.411 1.923 7.542 3.975 0.707 0.681 1.037 1.506 0.918 2.485-0.028 0.228 0.024 0.395 0.146 0.575 1.122 1.664 1.866 3.483 2.195 5.465 0.094 0.568 0.15 1.142 0.222 1.713 0 2.655 0 5.311 0 7.967-0.009 0.016-0.024 0.032-0.028 0.049-0.179 1.079-1.044 1.859-2.112 1.925-0.168 0.011-0.215 0.090-0.258 0.232-0.304 0.986-0.953 1.636-1.939 1.935-0.167 0.051-0.219 0.124-0.232 0.289-0.033 0.464-0.199 0.878-0.488 1.247-0.396 0.506-0.936 0.743-1.544 0.866-0.15 0.001-0.302 0.001-0.453 0.001zM30.61 2.566c-3.237 0.040-5.981 0.816-8.483 2.408-0.842 0.536-1.647 1.131-2.298 1.892-0.812 0.949-0.334 2.4 0.875 2.716 0.665 0.174 1.212-0.055 1.718-0.499 0.526-0.461 1.060-0.928 1.652-1.295 2.387-1.48 4.989-2.041 7.781-1.691 1.454 0.182 2.822 0.63 4.112 1.322 0.917 0.492 1.714 1.142 2.489 1.831 0.512 0.455 1.134 0.512 1.757 0.243 1.147-0.496 1.358-1.959 0.413-2.855-2.884-2.734-6.365-3.969-10.016-4.072zM23.728 23.739c0-0.208 0-0.418 0-0.626 0-1.299 0.006-2.598-0.003-3.896-0.004-0.716-0.569-1.23-1.252-1.163-0.606 0.060-1.019 0.551-1.020 1.226-0.003 1.991-0.001 3.982-0.001 5.974 0 0.996-0.004 1.991 0.001 2.987 0.003 0.547 0.313 0.978 0.79 1.128 0.756 0.238 1.477-0.307 1.482-1.135 0.009-1.498 0.003-2.996 0.003-4.494zM39.206 23.74c0-1.498 0.004-2.996-0.001-4.494-0.003-0.729-0.537-1.241-1.224-1.194-0.616 0.043-1.048 0.542-1.049 1.228-0.002 2.911-0.001 5.821-0.001 8.733 0 0.123-0.004 0.247 0.007 0.369 0.041 0.472 0.364 0.863 0.812 0.993 0.751 0.218 1.45-0.321 1.455-1.14 0.007-1.498 0.002-2.996 0.002-4.494zM18.933 9.8c-1.020 1.6-1.677 3.328-1.901 5.195-0.268 2.227-0.097 4.47-0.122 6.705 0 0.006 0.009 0.014 0.004 0.006 0.366-0.098 0.728-0.194 1.112-0.297-0.008 0.016 0.006 0 0.007-0.017 0.004-0.142 0.004-0.285 0.006-0.426 0.029-1.743-0.090-3.489 0.17-5.224 0.227-1.515 0.604-2.986 1.219-4.392 0.128-0.291 0.282-0.57 0.415-0.836-0.312-0.245-0.601-0.471-0.909-0.713zM40.837 10.503c0.033 0.063 0.063 0.131 0.101 0.195 1.169 1.963 1.703 4.092 1.683 6.371-0.011 1.356-0.002 2.711-0.002 4.067 0 0.102 0 0.204 0 0.27 0.397 0.106 0.758 0.203 1.129 0.302 0.002-0.040 0.009-0.094 0.009-0.148 0-1.612 0.007-3.224-0.003-4.835-0.011-1.843-0.385-3.612-1.146-5.291-0.256-0.564-0.572-1.102-0.861-1.655-0.322 0.256-0.602 0.478-0.91 0.724zM20.301 20.444c-0.651 0.239-1.101 0.802-1.113 1.468-0.022 1.211-0.021 2.424-0.001 3.636 0.011 0.681 0.492 1.281 1.114 1.467 0-2.186 0-4.368 0-6.571zM40.364 20.458c0 2.199 0 4.378 0 6.565 0.649-0.233 1.098-0.809 1.108-1.489 0.019-1.202 0.019-2.406-0.001-3.608-0.011-0.682-0.487-1.278-1.108-1.469zM18.025 22.614c-0.651 0.015-1.14 0.525-1.122 1.155 0.018 0.608 0.513 1.089 1.122 1.081 0-0.745 0-1.491 0-2.236zM42.63 24.862c0.688-0.041 1.163-0.557 1.124-1.195-0.037-0.6-0.551-1.078-1.124-1.036 0 0.736 0 1.472 0 2.231z"></path>
<path d="M29.176 24.559c0.46-1.61 0.92-3.219 1.38-4.828 0.112-0.391 0.222-0.783 0.338-1.173 0.102-0.342 0.314-0.519 0.596-0.508 0.271 0.011 0.465 0.188 0.55 0.525 0.321 1.266 0.638 2.533 0.957 3.799 0.018 0.072 0.042 0.142 0.067 0.225 0.325 0 0.637-0.005 0.949 0.001 0.375 0.008 0.626 0.23 0.636 0.551 0.011 0.327-0.251 0.575-0.636 0.583-0.445 0.009-0.891 0.007-1.336 0.001-0.364-0.006-0.549-0.156-0.643-0.521-0.195-0.76-0.385-1.522-0.595-2.357-0.047 0.133-0.076 0.202-0.097 0.273-0.508 1.774-1.016 3.548-1.524 5.322-0.008 0.027-0.013 0.055-0.021 0.083-0.123 0.42-0.314 0.612-0.608 0.612-0.284 0-0.472-0.178-0.606-0.582-0.291-0.871-0.584-1.741-0.867-2.614-0.051-0.159-0.119-0.229-0.295-0.218-0.264 0.016-0.531 0.011-0.796 0.002-0.368-0.014-0.621-0.253-0.618-0.573 0.003-0.321 0.256-0.555 0.626-0.561 0.445-0.008 0.891-0.005 1.336-0.001 0.359 0.004 0.531 0.129 0.651 0.478 0.168 0.49 0.33 0.983 0.494 1.475 0.021 0.002 0.041 0.004 0.061 0.006z"></path>
<path d="M30.369 3.627c1.068 0.137 2.138 0.265 3.204 0.417 0.399 0.057 0.601 0.337 0.54 0.662-0.064 0.342-0.351 0.516-0.759 0.439-1.375-0.259-2.758-0.378-4.155-0.247-1.162 0.109-2.307 0.306-3.409 0.708-0.115 0.042-0.23 0.087-0.349 0.119-0.295 0.078-0.577-0.054-0.681-0.312-0.117-0.291-0.011-0.607 0.297-0.733 0.41-0.168 0.832-0.315 1.26-0.432 1.321-0.363 2.67-0.538 4.041-0.542 0.004-0.026 0.007-0.051 0.011-0.078z"></path>
<path d="M35.353 5.708c-0.308-0.003-0.558-0.257-0.554-0.564 0.004-0.302 0.266-0.562 0.566-0.558 0.302 0.004 0.556 0.265 0.552 0.57-0.003 0.309-0.254 0.555-0.564 0.552z"></path>
</symbol>
<symbol id="icon-truck" viewBox="0 0 45 32">
<path d="M0 3.406c0.257-0.365 0.607-0.467 1.050-0.466 9.278 0.010 18.556 0.007 27.834 0.008 0.831 0 1.037 0.205 1.038 1.028 0.001 1.366 0 2.732 0 4.146 0.199 0.011 0.367 0.028 0.534 0.028 2.206 0.002 4.413 0.012 6.618-0.006 0.524-0.005 0.865 0.176 1.149 0.622 2.118 3.312 4.261 6.608 6.378 9.921 0.169 0.264 0.275 0.617 0.279 0.929 0.022 2.547 0.013 5.095 0.012 7.641 0 0.798-0.238 1.030-1.053 1.030-1.153 0.001-2.305 0-3.473 0-0.081 0.268-0.145 0.52-0.233 0.762-0.665 1.833-2.441 3.026-4.375 2.943-2.003-0.085-3.673-1.406-4.178-3.326-0.068-0.259-0.139-0.389-0.447-0.387-5.333 0.011-10.665 0.007-15.999 0.008-0.057 0-0.115 0.007-0.191 0.013-0.668 2.332-2.133 3.754-4.65 3.669-2.329-0.079-3.673-1.476-4.281-3.682-1.645 0-3.295-0.012-4.944 0.007-0.465 0.006-0.826-0.113-1.067-0.52 0.001-8.122 0.001-16.245 0.001-24.369zM1.525 4.455c0 6.474 0 12.899 0 19.378 1.249 0 2.467 0 3.691 0 0 0.513 0 0.971 0 1.48-1.246 0-2.466 0-3.686 0 0 0.522 0 0.991 0 1.487 0.779 0 1.523 0 2.265 0s1.484 0 2.212 0c0.884-2.489 2.268-3.676 4.327-3.732 0.93-0.024 1.793 0.21 2.575 0.715 1.096 0.711 1.734 1.74 2.005 2.985 4.512 0 8.991 0 13.477 0 0-0.491 0-0.951 0-1.472-4.233 0-8.445 0-12.656 0 0-0.519 0-0.979 0-1.484 4.23 0 8.432 0 12.661 0 0-5.481 0-10.917 0-16.401-8.468 0-16.918 0-25.374 0 0-0.522 0-0.992 0-1.497 8.474 0 16.915 0 25.372 0 0-0.506 0-0.976 0-1.46-8.969 0.001-17.907 0.001-26.869 0.001zM41.163 23.78c0.773 0 1.499 0 2.236 0 0-1.327 0-2.579 0-3.83 0-0.595-0.021-0.616-0.616-0.616-3.449 0-6.897 0.001-10.344-0.001-0.785 0-1.017-0.232-1.018-1.016-0.002-2.053-0.002-4.105 0-6.157 0.001-0.78 0.237-1.014 1.021-1.015 1.652-0.002 3.302-0.001 4.954-0.001 0.155 0 0.309 0 0.56 0-0.283-0.446-0.531-0.799-0.74-1.173-0.139-0.249-0.31-0.331-0.596-0.329-2.075 0.013-4.149 0.006-6.225 0.007-0.129 0-0.258 0.014-0.401 0.022 0 5.717 0 11.409 0 17.106 0.517 0 0.992 0 1.457 0 0.915-2.495 2.272-3.702 4.331-3.695 2.489 0.008 3.952 1.376 4.598 3.695 1.002 0 1.989 0 2.989 0 0-0.497 0-0.967 0-1.49-0.753 0-1.475 0-2.205 0-0.001-0.503-0.001-0.95-0.001-1.507zM42.231 17.826c-0.034-0.092-0.042-0.135-0.064-0.169-1.032-1.602-2.058-3.208-3.109-4.797-0.086-0.13-0.333-0.211-0.506-0.214-1.722-0.015-3.445-0.009-5.167-0.008-0.141 0-0.282 0.012-0.426 0.018 0 1.747 0 3.451 0 5.171 3.103 0 6.165 0 9.273 0zM35.906 30.511c1.643 0.006 2.991-1.32 3.005-2.955 0.014-1.621-1.334-2.985-2.967-3.003-1.655-0.016-3.022 1.335-3.020 2.986 0.004 1.643 1.332 2.966 2.982 2.971zM10.452 30.511c1.649 0.012 2.987-1.292 3.016-2.94 0.029-1.635-1.342-3.018-2.993-3.018-1.634 0-2.986 1.341-2.996 2.972-0.011 1.629 1.328 2.973 2.973 2.985z"></path>
<path d="M0 0c0.477 0 0.952 0 1.462 0 0 0.457 0 0.927 0 1.486-0.485 0-0.973 0-1.462 0 0-0.496 0-0.991 0-1.486z"></path>
<path d="M13.473 0.002c0 0.422 0.016 0.815-0.012 1.202-0.007 0.089-0.155 0.193-0.26 0.243-0.083 0.040-0.2 0.009-0.303 0.009-3.11 0-6.221 0-9.331 0-0.172 0-0.346 0-0.548 0 0-0.498 0-0.955 0-1.454 3.459 0 6.923 0 10.455 0z"></path>
<path d="M36.64 26.836c0 0.483 0 0.942 0 1.427-0.488 0-0.958 0-1.451 0 0-0.476 0-0.934 0-1.427 0.467 0 0.937 0 1.451 0z"></path>
<path d="M11.203 26.834c0 0.49 0 0.948 0 1.432-0.479 0-0.938 0-1.436 0 0-0.461 0-0.93 0-1.432 0.459 0 0.929 0 1.436 0z"></path>
</symbol>
<symbol id="icon-vector-right" viewBox="0 0 32 32">
<path d="M10.667 0l-3.76 3.76 12.213 12.24-12.213 12.24 3.76 3.76 16-16-16-16z"></path>
</symbol>
<symbol id="icon-star-dark" viewBox="0 0 32 32">
<path d="M16 25.232l9.064 5.968-2.405-11.248 8.008-7.568-10.545-0.976-4.121-10.608-4.121 10.608-10.545 0.976 8.008 7.568-2.405 11.248 9.064-5.968z"></path>
</symbol>
<symbol id="icon-comment" viewBox="0 0 32 32">
<path fill="#fff" style="fill: var(--color1, #fff)" d="M0 16.192c0.405-6.988 3.468-12.084 9.776-14.788 5.889-2.526 11.498-1.601 16.493 2.434 3.011 2.432 4.789 5.659 5.461 9.464 0.625 3.535 0.082 6.915-1.573 10.103-0.167 0.323-0.196 0.592-0.087 0.933 0.625 1.986 1.223 3.982 1.842 5.97 0.159 0.512 0.114 0.962-0.287 1.337-0.419 0.393-0.887 0.422-1.414 0.207-1.786-0.729-3.582-1.433-5.367-2.163-0.246-0.101-0.424-0.094-0.652 0.043-2.748 1.649-5.732 2.384-8.927 2.252-7.168-0.295-13.379-5.56-14.827-12.596-0.228-1.108-0.31-2.247-0.438-3.196zM29.044 28.902c-0.047-0.171-0.072-0.272-0.102-0.372-0.419-1.406-0.824-2.817-1.267-4.215-0.167-0.528-0.109-0.974 0.163-1.454 1.753-3.086 2.267-6.37 1.517-9.845-1.875-8.692-11.564-13.356-19.523-9.396-5.759 2.865-8.749 9.14-7.343 15.442 1.248 5.594 6.005 10.089 12.188 10.649 3.227 0.292 6.208-0.483 8.909-2.285 0.459-0.305 0.897-0.355 1.405-0.146 1.323 0.544 2.655 1.064 4.054 1.622z"></path>
<path fill="#fff" style="fill: var(--color1, #fff)" d="M10.329 16.057c-0.003 1.266-1.016 2.269-2.288 2.267-1.265-0.003-2.268-1.016-2.265-2.29 0.003-1.266 1.015-2.269 2.288-2.266 1.266 0.002 2.268 1.014 2.265 2.289z"></path>
<path fill="#fff" style="fill: var(--color1, #fff)" d="M13.75 16.052c-0.002-1.273 1.002-2.283 2.269-2.284 1.272-0.002 2.283 1.003 2.284 2.271 0.002 1.273-1.002 2.284-2.27 2.285-1.27 0.001-2.281-1.005-2.283-2.272z"></path>
<path fill="#fff" style="fill: var(--color1, #fff)" d="M24.021 13.768c1.263 0.005 2.261 1.021 2.256 2.298-0.005 1.263-1.021 2.262-2.298 2.257-1.262-0.005-2.261-1.023-2.256-2.299 0.006-1.263 1.021-2.261 2.298-2.256z"></path>
</symbol>
<symbol id="icon-calendar" viewBox="0 0 32 32">
<path fill="#fff" style="fill: var(--color1, #fff)" d="M26.439 32c-6.956 0-13.914 0-20.87 0-0.069-0.021-0.135-0.052-0.206-0.061-2.979-0.363-5.348-3.005-5.352-6.002-0.008-5.779-0.024-11.559 0.008-17.339 0.013-2.42 1.172-4.218 3.268-5.407 0.944-0.536 1.979-0.738 3.057-0.739 0.338-0.001 0.678 0 1.034 0 0-0.13-0.002-0.212 0-0.294 0.008-0.395-0.032-0.798 0.034-1.184 0.104-0.616 0.713-1.024 1.342-0.964 0.619 0.058 1.108 0.584 1.121 1.218 0.008 0.402 0.002 0.804 0.002 1.199 4.108 0 8.172 0 12.252 0 0-0.348-0.011-0.67 0.003-0.991 0.010-0.216 0.019-0.442 0.090-0.642 0.196-0.546 0.786-0.871 1.351-0.779 0.602 0.098 1.040 0.6 1.051 1.216 0.007 0.402 0.002 0.804 0.002 1.224 0.465 0 0.882-0.010 1.297 0.002 2.862 0.079 5.227 1.985 5.912 4.762 0.059 0.239 0.109 0.48 0.164 0.72 0 6.187 0 12.374 0 18.561-0.020 0.057-0.050 0.113-0.059 0.171-0.383 2.329-1.667 3.961-3.833 4.874-0.526 0.222-1.11 0.307-1.668 0.455zM29.502 12.364c-9.018 0-17.998 0-26.996 0 0 0.138 0 0.252 0 0.365 0 4.301 0 8.602 0 12.904 0 2.259 1.587 3.862 3.844 3.863 6.435 0.004 12.87 0.003 19.305-0.002 0.3 0 0.607-0.019 0.899-0.084 1.776-0.393 2.946-1.857 2.947-3.681 0.003-4.353 0.001-8.706 0.001-13.060 0-0.093 0-0.186 0-0.305zM24.626 5.008c0 0.83 0.007 1.642-0.003 2.452-0.008 0.569-0.441 1.064-0.99 1.165-0.81 0.147-1.497-0.42-1.502-1.249-0.005-0.789-0.001-1.577-0.001-2.382-4.096 0-8.159 0-12.251 0 0 0.121 0 0.223 0 0.325 0 0.698 0.006 1.395-0.002 2.093-0.008 0.699-0.571 1.247-1.259 1.242-0.681-0.007-1.226-0.541-1.235-1.229-0.008-0.677-0.003-1.354-0.003-2.030 0-0.132 0-0.263 0-0.389-3.45-0.408-5.226 1.765-4.839 4.803 8.977 0 17.954 0 26.93 0 0.387-3.174-1.527-5.214-4.844-4.8z"></path>
<path fill="#fff" style="fill: var(--color1, #fff)" d="M23.389 16.002c0.416 0 0.832-0.005 1.248 0.001 0.679 0.010 1.225 0.564 1.23 1.239 0.005 0.673-0.541 1.246-1.216 1.254-0.843 0.010-1.686 0.009-2.528 0.001-0.676-0.007-1.227-0.57-1.231-1.24-0.006-0.68 0.556-1.247 1.248-1.254 0.416-0.004 0.832-0.001 1.249-0.001z"></path>
<path fill="#fff" style="fill: var(--color1, #fff)" d="M16.004 23.375c0.427 0 0.853-0.009 1.28 0.003 0.66 0.017 1.195 0.574 1.201 1.236 0.006 0.653-0.533 1.242-1.186 1.254-0.863 0.017-1.727 0.015-2.591 0.001-0.658-0.011-1.193-0.579-1.197-1.24-0.004-0.678 0.531-1.236 1.213-1.252 0.426-0.009 0.853-0.002 1.28-0.002z"></path>
<path fill="#fff" style="fill: var(--color1, #fff)" d="M8.639 16.002c0.416 0 0.832-0.005 1.248 0.001 0.675 0.011 1.225 0.572 1.227 1.244 0.002 0.67-0.547 1.242-1.222 1.249-0.843 0.009-1.686 0.009-2.528 0-0.678-0.007-1.224-0.571-1.225-1.244s0.546-1.237 1.22-1.249c0.426-0.007 0.852-0.001 1.279-0.001z"></path>
<path fill="#fff" style="fill: var(--color1, #fff)" d="M16.019 16.002c0.416 0 0.832-0.006 1.248 0.002 0.671 0.012 1.223 0.586 1.217 1.254-0.006 0.659-0.546 1.229-1.201 1.238-0.853 0.012-1.706 0.011-2.56 0.001-0.676-0.008-1.217-0.579-1.213-1.254 0.004-0.678 0.547-1.229 1.228-1.239 0.428-0.007 0.854-0.002 1.281-0.002z"></path>
<path fill="#fff" style="fill: var(--color1, #fff)" d="M8.646 23.375c0.416 0 0.833-0.007 1.248 0.002 0.68 0.015 1.223 0.576 1.221 1.248-0.003 0.669-0.553 1.237-1.229 1.244-0.843 0.010-1.686 0.011-2.528-0.001-0.673-0.009-1.221-0.583-1.218-1.252 0.003-0.677 0.54-1.226 1.227-1.24 0.427-0.008 0.854-0.001 1.28-0.001z"></path>
<path fill="#fff" style="fill: var(--color1, #fff)" d="M23.387 23.376c0.427 0 0.853-0.009 1.28 0.002 0.663 0.017 1.195 0.57 1.201 1.234 0.006 0.656-0.53 1.243-1.182 1.256-0.874 0.017-1.749 0.018-2.622-0.001-0.649-0.014-1.188-0.619-1.171-1.268 0.017-0.652 0.541-1.201 1.184-1.221 0.437-0.012 0.874-0.003 1.311-0.003z"></path>
</symbol>
<symbol id="icon-money1" viewBox="0 0 32 32">
<path d="M2.428 32c-0.276-0.18-0.402-0.434-0.46-0.763-0.643-3.689-1.299-7.377-1.95-11.065-0.078-0.441 0.104-0.742 0.548-0.826 1.105-0.207 2.209-0.423 3.321-0.576 1.087-0.149 1.997 0.557 2.225 1.65 0.023 0.11 0.046 0.219 0.074 0.348 0.715-0.246 1.402-0.482 2.056-0.707-0.069-0.702-0.171-1.379-0.194-2.060-0.049-1.489 0.34-2.881 1.019-4.199 1.256-2.442 2.506-4.887 3.771-7.325 0.126-0.243 0.114-0.42-0.005-0.654-0.608-1.185-1.2-2.376-1.791-3.57-0.326-0.659-0.229-1.317 0.244-1.785 0.442-0.439 1.101-0.555 1.673-0.276 0.29 0.141 0.564 0.312 0.845 0.472 0.529 0.301 0.711 0.291 1.177-0.102 0.663-0.56 1.391-0.739 2.199-0.366 0.224 0.103 0.42 0.268 0.626 0.409 0.353 0.242 0.626 0.236 0.97-0.023 0.978-0.74 1.738-0.769 2.724-0.020 0.487 0.371 0.915 0.427 1.412 0.065 0.209-0.153 0.447-0.265 0.676-0.39 0.646-0.352 1.293-0.286 1.788 0.18 0.488 0.458 0.605 1.12 0.288 1.777-0.592 1.227-1.192 2.451-1.802 3.669-0.104 0.208-0.107 0.364 0 0.575 1.333 2.625 2.655 5.254 3.975 7.886 0.125 0.25 0.225 0.515 0.313 0.781 0.114 0.349-0.039 0.675-0.353 0.8-0.308 0.124-0.633-0.019-0.799-0.353-1.397-2.812-2.796-5.624-4.184-8.442-0.117-0.237-0.244-0.33-0.514-0.328-2.625 0.011-5.252 0.009-7.877 0.002-0.245-0.001-0.384 0.061-0.504 0.296-1.243 2.448-2.5 4.89-3.758 7.332-0.805 1.563-1.069 3.203-0.73 4.934 0.012 0.061 0.027 0.122 0.045 0.182 0.009 0.029 0.028 0.054 0.015 0.030 0.731-0.152 1.434-0.36 2.151-0.434 1.57-0.161 2.979 0.311 4.245 1.237 1.395 1.021 2.784 2.051 4.191 3.054 0.683 0.486 1.232 1.030 1.22 1.938 0.947 0.105 1.745-0.128 2.412-0.804 1.456-1.475 2.926-2.938 4.393-4.402 0.795-0.793 1.766-0.981 2.677-0.512 0.552 0.284 0.928 0.726 1.106 1.328 0.029 0.098 0.074 0.191 0.111 0.286 0 0.208 0 0.416 0 0.625-0.118 0.478-0.316 0.913-0.641 1.294-0.757 0.888-1.496 1.79-2.254 2.677-0.704 0.823-1.368 1.691-2.147 2.435-1.775 1.695-3.939 2.47-6.388 2.467-2.802-0.002-5.606-0.001-8.408-0.001-0.569 0-0.864-0.217-0.86-0.631s0.29-0.618 0.87-0.618c2.813 0 5.627 0.004 8.439-0.002 2.337-0.005 4.339-0.815 5.918-2.56 0.789-0.872 1.528-1.789 2.288-2.689 0.565-0.668 1.135-1.331 1.683-2.013 0.482-0.6 0.21-1.402-0.515-1.568-0.412-0.095-0.724 0.092-1.003 0.372-1.471 1.475-2.947 2.945-4.416 4.423-0.543 0.546-1.172 0.953-1.932 1.077-0.53 0.086-1.078 0.058-1.618 0.088-0.107 0.006-0.24 0.020-0.312 0.084-0.745 0.657-1.548 0.679-2.404 0.25-1.051-0.527-2.117-1.025-3.152-1.582-0.714-0.384-1.434-0.654-2.257-0.548-0.070 0.009-0.146-0.004-0.218-0.015-0.31-0.046-0.535-0.293-0.543-0.592-0.008-0.293 0.204-0.581 0.518-0.606 0.798-0.063 1.587-0.107 2.345 0.29 1.28 0.672 2.58 1.306 3.884 1.93 0.215 0.102 0.521 0.164 0.734 0.092 0.565-0.189 0.588-0.874 0.062-1.259-1.528-1.121-3.056-2.243-4.591-3.354-1.182-0.856-2.501-1.185-3.931-0.873-0.727 0.159-1.43 0.439-2.139 0.676-0.865 0.29-1.727 0.591-2.614 0.896 0.128 0.73 0.251 1.435 0.374 2.14 0.292 1.67 0.598 3.338 0.871 5.012 0.148 0.91-0.384 1.816-1.238 2.119-0.398 0.141-0.83 0.189-1.248 0.272-0.763 0.149-1.528 0.292-2.291 0.438-0.145 0.002-0.29 0.002-0.437 0.002zM18.372 5.539c1.322 0 2.644-0.005 3.967 0.005 0.215 0.002 0.331-0.057 0.427-0.261 0.439-0.93 0.9-1.85 1.352-2.775 0.128-0.261 0.271-0.517 0.375-0.787 0.045-0.115 0.007-0.261 0.008-0.394-0.122 0.012-0.262-0.009-0.364 0.042-0.306 0.153-0.586 0.363-0.9 0.498-0.3 0.129-0.623 0.237-0.946 0.275-0.597 0.068-1.074-0.242-1.535-0.583-0.511-0.379-0.718-0.368-1.219 0.016-0.796 0.611-1.662 0.622-2.477 0.034-0.676-0.488-0.763-0.482-1.435 0.045-0.702 0.549-1.454 0.622-2.244 0.206-0.267-0.14-0.517-0.315-0.789-0.442-0.122-0.057-0.28-0.039-0.422-0.055 0.012 0.143-0.016 0.305 0.042 0.426 0.571 1.167 1.16 2.325 1.734 3.49 0.095 0.192 0.205 0.268 0.427 0.267 1.332-0.012 2.665-0.007 3.997-0.007zM1.342 20.472c0.601 3.402 1.196 6.775 1.797 10.183 0.932-0.171 1.835-0.317 2.727-0.51 0.425-0.092 0.608-0.464 0.528-0.925-0.347-1.988-0.697-3.976-1.046-5.963-0.144-0.82-0.286-1.639-0.434-2.459-0.101-0.559-0.389-0.854-0.862-0.787-0.893 0.125-1.781 0.299-2.71 0.46z"></path>
<path d="M15.736 16.956c-0.019-0.427 0.178-0.693 0.543-0.739 0.345-0.043 0.657 0.187 0.68 0.607 0.048 0.884 1.029 1.315 1.72 1.127 0.597-0.163 1.020-0.637 0.994-1.163-0.027-0.555-0.517-1.015-1.133-1.111-0.468-0.074-0.961-0.121-1.387-0.308-0.986-0.431-1.478-1.299-1.414-2.316 0.059-0.926 0.722-1.745 1.691-2.075 0.157-0.053 0.261-0.095 0.271-0.308 0.020-0.42 0.296-0.676 0.642-0.661 0.343 0.015 0.582 0.26 0.589 0.674 0.004 0.225 0.142 0.243 0.286 0.297 0.972 0.361 1.564 1.033 1.693 2.080 0.053 0.434-0.175 0.752-0.556 0.795-0.345 0.039-0.618-0.211-0.677-0.623-0.084-0.581-0.413-0.961-0.954-1.104-0.576-0.153-1.196 0.036-1.525 0.463-0.535 0.694-0.054 1.652 0.884 1.798 0.489 0.077 1 0.134 1.446 0.327 0.91 0.395 1.456 1.335 1.391 2.214-0.073 0.998-0.717 1.825-1.687 2.15-0.181 0.060-0.3 0.116-0.308 0.348-0.013 0.319-0.268 0.539-0.571 0.559-0.291 0.019-0.579-0.18-0.619-0.498-0.034-0.26-0.156-0.352-0.387-0.431-0.924-0.318-1.571-1.18-1.612-2.102z"></path>
<path d="M28.609 17.698c-0.008 0.33-0.305 0.618-0.631 0.611-0.336-0.006-0.612-0.294-0.606-0.63s0.294-0.617 0.626-0.611c0.329 0.006 0.619 0.305 0.612 0.629z"></path>
<path d="M9.565 29.503c0.328 0.005 0.617 0.301 0.611 0.628s-0.305 0.618-0.629 0.611c-0.328-0.006-0.617-0.303-0.611-0.629 0.006-0.329 0.301-0.615 0.629-0.61z"></path>
<path d="M4.473 27.832c0.328 0.003 0.614 0.294 0.612 0.625-0.002 0.335-0.284 0.613-0.621 0.611-0.339-0.002-0.611-0.279-0.608-0.62 0.002-0.333 0.287-0.618 0.617-0.615z"></path>
</symbol>
<symbol id="icon-headphones" viewBox="0 0 32 32">
<path d="M24.251 32.001c-0.646-0.131-1.225-0.378-1.659-0.905-0.38-0.461-0.584-0.989-0.585-1.577-0.008-3.343-0.017-6.687 0.003-10.030 0.006-1.063 0.535-1.861 1.515-2.279 0.954-0.407 1.861-0.241 2.647 0.445 0.565 0.493 0.805 1.146 0.831 1.855 0.418 0.185 0.813 0.361 1.217 0.54-0.005 0.004 0.021-0.009 0.021-0.021-0.038-1.623 0.008-3.252-0.139-4.866-0.157-1.721-0.826-3.3-1.779-4.746-0.051-0.077-0.178-0.144-0.272-0.147-0.879-0.023-1.606-0.38-2.233-0.976-1.587-1.505-3.485-2.405-5.613-2.816-2.737-0.528-5.336-0.088-7.8 1.207-0.931 0.489-1.724 1.159-2.506 1.847-0.518 0.455-1.131 0.699-1.82 0.716-0.243 0.006-0.36 0.103-0.474 0.307-0.92 1.641-1.371 3.427-1.664 5.266-0.224 1.406-0.193 2.82-0.182 4.24 0.414-0.184 0.816-0.363 1.242-0.552 0.026-0.709 0.266-1.362 0.831-1.855 0.786-0.685 1.693-0.853 2.647-0.445 0.993 0.425 1.492 1.234 1.519 2.31 0.021 0.823 0.005 1.645 0.005 2.468 0 2.333-0.041 4.667 0.015 6.999 0.035 1.492-0.622 2.718-2.265 3.014-0.167 0-0.333 0-0.5 0-0.019-0.009-0.036-0.025-0.056-0.027-1.222-0.157-2.128-1.173-2.196-2.361-0.005-0.084-0.124-0.203-0.214-0.232-1.094-0.346-1.82-1.057-2.152-2.156-0.050-0.165-0.121-0.223-0.294-0.245-1.481-0.192-2.337-1.17-2.337-2.663-0.005-2.445-0.006-4.893-0.002-7.34 0.002-1.316 0.145-2.617 0.466-3.896 0.451-1.793 1.201-3.451 2.229-4.987 0.087-0.13 0.126-0.326 0.11-0.484-0.11-1.075 0.196-1.999 0.974-2.749 2.747-2.645 6.048-4.137 9.8-4.679 0.492-0.071 0.988-0.121 1.482-0.18 0.625 0 1.25 0 1.875 0 0.080 0.018 0.16 0.041 0.24 0.053 0.905 0.13 1.823 0.201 2.714 0.398 3.154 0.698 5.943 2.112 8.284 4.367 0.776 0.748 1.139 1.654 1.008 2.73-0.031 0.25 0.027 0.434 0.16 0.632 1.233 1.827 2.049 3.826 2.411 6.002 0.103 0.623 0.164 1.254 0.244 1.881 0 2.916 0 5.834 0 8.75-0.010 0.018-0.027 0.035-0.031 0.054-0.196 1.185-1.147 2.041-2.32 2.115-0.185 0.012-0.236 0.098-0.283 0.255-0.333 1.083-1.047 1.797-2.13 2.126-0.183 0.055-0.241 0.136-0.254 0.317-0.036 0.509-0.218 0.964-0.536 1.37-0.435 0.555-1.029 0.816-1.696 0.951-0.165 0.001-0.332 0.001-0.498 0.001zM16.309 1.245c-3.555 0.044-6.57 0.896-9.317 2.645-0.924 0.588-1.809 1.242-2.524 2.078-0.892 1.042-0.366 2.636 0.961 2.984 0.73 0.191 1.331-0.060 1.887-0.548 0.578-0.506 1.165-1.020 1.814-1.422 2.622-1.625 5.48-2.241 8.546-1.857 1.597 0.2 3.1 0.691 4.517 1.452 1.007 0.541 1.883 1.255 2.733 2.011 0.563 0.5 1.245 0.563 1.93 0.266 1.259-0.545 1.492-2.152 0.453-3.136-3.168-3.002-6.991-4.359-11.002-4.473zM8.751 24.5c0-0.229 0-0.459 0-0.688 0-1.427 0.006-2.853-0.003-4.28-0.005-0.787-0.625-1.351-1.375-1.277-0.665 0.066-1.119 0.605-1.121 1.347-0.003 2.187-0.001 4.373-0.001 6.561 0 1.094-0.004 2.187 0.002 3.281 0.003 0.601 0.344 1.074 0.868 1.239 0.831 0.261 1.623-0.337 1.627-1.247 0.009-1.645 0.003-3.291 0.003-4.936zM25.751 24.501c0-1.645 0.005-3.291-0.002-4.936-0.003-0.801-0.589-1.363-1.345-1.312-0.676 0.047-1.151 0.595-1.152 1.348-0.002 3.197-0.001 6.394-0.001 9.592 0 0.135-0.004 0.271 0.008 0.405 0.045 0.518 0.4 0.948 0.892 1.091 0.825 0.239 1.593-0.353 1.598-1.252 0.008-1.645 0.002-3.291 0.002-4.936zM3.484 9.19c-1.121 1.757-1.842 3.655-2.088 5.706-0.294 2.446-0.106 4.909-0.134 7.365 0 0.007 0.009 0.015 0.004 0.007 0.402-0.108 0.799-0.213 1.221-0.327-0.009 0.018 0.007 0 0.008-0.019 0.004-0.156 0.004-0.313 0.007-0.468 0.032-1.914-0.099-3.832 0.186-5.738 0.249-1.664 0.663-3.28 1.339-4.824 0.14-0.32 0.309-0.626 0.456-0.919-0.343-0.269-0.66-0.517-0.999-0.784zM27.543 9.963c0.036 0.069 0.070 0.144 0.111 0.214 1.285 2.156 1.87 4.495 1.849 6.998-0.013 1.489-0.002 2.978-0.002 4.467 0 0.112 0 0.224 0 0.297 0.436 0.116 0.832 0.223 1.24 0.331 0.002-0.044 0.009-0.103 0.009-0.163 0-1.77 0.008-3.541-0.003-5.311-0.012-2.024-0.423-3.967-1.259-5.812-0.281-0.62-0.628-1.21-0.946-1.817-0.354 0.281-0.661 0.525-1 0.795zM4.987 20.882c-0.715 0.262-1.209 0.881-1.223 1.613-0.024 1.331-0.023 2.663-0.001 3.994 0.013 0.748 0.54 1.407 1.223 1.611 0-2.401 0-4.798 0-7.217zM27.023 20.896c0 2.415 0 4.809 0 7.211 0.712-0.255 1.206-0.888 1.217-1.635 0.020-1.32 0.021-2.642-0.001-3.963-0.013-0.749-0.535-1.404-1.216-1.613zM2.486 23.265c-0.715 0.016-1.252 0.577-1.232 1.269 0.020 0.668 0.564 1.196 1.232 1.188 0-0.819 0-1.638 0-2.456zM29.511 25.733c0.755-0.045 1.277-0.612 1.234-1.313-0.041-0.659-0.605-1.184-1.234-1.138 0 0.809 0 1.617 0 2.45z"></path>
<path d="M14.734 25.401c0.506-1.768 1.011-3.536 1.516-5.303 0.123-0.43 0.243-0.86 0.371-1.288 0.112-0.376 0.344-0.57 0.654-0.558 0.297 0.012 0.51 0.207 0.604 0.577 0.352 1.391 0.701 2.782 1.051 4.173 0.020 0.079 0.046 0.156 0.074 0.247 0.357 0 0.7-0.006 1.043 0.002 0.412 0.009 0.688 0.253 0.699 0.605 0.012 0.359-0.276 0.632-0.698 0.641-0.489 0.009-0.978 0.008-1.468 0.001-0.4-0.006-0.604-0.171-0.706-0.572-0.214-0.835-0.423-1.672-0.654-2.589-0.052 0.146-0.084 0.222-0.107 0.3-0.558 1.948-1.116 3.897-1.674 5.845-0.009 0.030-0.014 0.061-0.023 0.091-0.135 0.461-0.344 0.672-0.668 0.672-0.312 0-0.518-0.195-0.666-0.639-0.319-0.956-0.642-1.912-0.952-2.871-0.056-0.175-0.131-0.252-0.324-0.24-0.29 0.017-0.583 0.012-0.874 0.002-0.405-0.015-0.682-0.278-0.679-0.629 0.003-0.352 0.281-0.609 0.687-0.616 0.489-0.009 0.978-0.005 1.468-0.001 0.395 0.004 0.583 0.142 0.715 0.525 0.185 0.538 0.362 1.080 0.542 1.62 0.023 0.002 0.045 0.005 0.067 0.007z"></path>
<path d="M16.044 2.41c1.173 0.151 2.348 0.291 3.519 0.458 0.438 0.063 0.66 0.37 0.593 0.727-0.070 0.376-0.386 0.566-0.834 0.482-1.51-0.284-3.029-0.415-4.563-0.271-1.277 0.12-2.534 0.336-3.745 0.777-0.127 0.046-0.253 0.096-0.384 0.13-0.324 0.086-0.634-0.059-0.748-0.343-0.128-0.32-0.012-0.667 0.326-0.805 0.451-0.184 0.914-0.346 1.384-0.475 1.451-0.398 2.933-0.591 4.439-0.595 0.004-0.028 0.008-0.056 0.012-0.085z"></path>
<path d="M21.519 4.696c-0.338-0.003-0.613-0.283-0.609-0.62 0.004-0.332 0.292-0.617 0.621-0.613 0.332 0.004 0.611 0.291 0.607 0.627-0.003 0.34-0.279 0.609-0.619 0.606z"></path>
</symbol>
<symbol id="icon-star-dark-border" viewBox="0 0 32 32">
<path d="M30.603 12.732l-10.5-0.905-4.103-9.667-4.104 9.682-10.5 0.891 7.973 6.907-2.395 10.266 9.025-5.447 9.025 5.447-2.38-10.266 7.959-6.907zM16 21.727l-5.491 3.315 1.46-6.25-4.848-4.206 6.396-0.555 2.483-5.885 2.497 5.9 6.396 0.555-4.848 4.206 1.46 6.25-5.505-3.33z"></path>
</symbol>
<symbol id="icon-star-yellow-white" viewBox="0 0 32 32">
<path fill="#ffc600" style="fill: var(--color2, #ffc600)" d="M32 12.384l-11.504-0.992-4.496-10.592-4.496 10.608-11.504 0.976 8.736 7.568-2.624 11.248 9.888-5.968 9.888 5.968-2.608-11.248 8.72-7.568zM16 22.24v-14.88l2.736 6.464 7.008 0.608-5.312 4.608 1.6 6.848-6.032-3.648z"></path>
</symbol>
<symbol id="icon-star-yellow" viewBox="0 0 32 32">
<path fill="#ffc600" style="fill: var(--color2, #ffc600)" d="M16 25.232l9.888 5.968-2.624-11.248 8.736-7.568-11.504-0.976-4.496-10.608-4.496 10.608-11.504 0.976 8.736 7.568-2.624 11.248 9.888-5.968z"></path>
</symbol>
<symbol id="icon-vector-left" viewBox="0 0 32 32">
<path d="M21.333 32l3.76-3.76-12.213-12.24 12.213-12.24-3.76-3.76-16 16 16 16z"></path>
</symbol>
<symbol id="icon-shopping-cart" viewBox="0 0 32 32">
<path fill="none" stroke-linejoin="round" stroke-linecap="round" stroke-miterlimit="4" stroke-width="2.4" d="M12 29.333c0.736 0 1.333-0.597 1.333-1.333s-0.597-1.333-1.333-1.333c-0.736 0-1.333 0.597-1.333 1.333s0.597 1.333 1.333 1.333z"></path>
<path fill="none" stroke-linejoin="round" stroke-linecap="round" stroke-miterlimit="4" stroke-width="2.4" d="M26.667 29.333c0.736 0 1.333-0.597 1.333-1.333s-0.597-1.333-1.333-1.333c-0.736 0-1.333 0.597-1.333 1.333s0.597 1.333 1.333 1.333z"></path>
<path fill="none" stroke-linejoin="round" stroke-linecap="round" stroke-miterlimit="4" stroke-width="2.4" d="M1.333 1.333h5.333l3.573 17.853c0.122 0.614 0.456 1.165 0.943 1.558s1.098 0.601 1.723 0.589h12.96c0.626 0.012 1.236-0.196 1.723-0.589s0.821-0.944 0.943-1.558l2.133-11.187h-22.667"></path>
</symbol>
<symbol id="icon-search" viewBox="0 0 32 32">
<path fill="none" stroke="#cda861" style="stroke: var(--color3, #cda861)" stroke-linejoin="round" stroke-linecap="round" stroke-miterlimit="4" stroke-width="2.4" d="M14.667 25.333c5.891 0 10.667-4.776 10.667-10.667s-4.776-10.667-10.667-10.667c-5.891 0-10.667 4.776-10.667 10.667s4.776 10.667 10.667 10.667z"></path>
<path fill="none" stroke="#cda861" style="stroke: var(--color3, #cda861)" stroke-linejoin="round" stroke-linecap="round" stroke-miterlimit="4" stroke-width="2.4" d="M28 28l-5.8-5.8"></path>
</symbol>
<symbol id="icon-phone" viewBox="0 0 20 20">
<path d="M17.256 12.253c-0.096-0.667-0.611-1.187-1.274-1.342-2.577-0.604-3.223-2.088-3.332-3.734-0.457-0.085-1.27-0.177-2.65-0.177s-2.193 0.092-2.65 0.177c-0.109 1.646-0.755 3.13-3.332 3.734-0.663 0.156-1.178 0.675-1.274 1.342l-0.497 3.442c-0.175 1.212 0.715 2.305 1.953 2.305h11.6c1.237 0 2.128-1.093 1.953-2.305l-0.497-3.442zM10 15.492c-1.395 0-2.526-1.12-2.526-2.5s1.131-2.5 2.526-2.5 2.526 1.12 2.526 2.5-1.132 2.5-2.526 2.5zM19.95 6c-0.024-1.5-3.842-3.999-9.95-4-6.109 0.001-9.927 2.5-9.95 4s0.021 3.452 2.535 3.127c2.941-0.381 2.76-1.408 2.76-2.876 0-1.024 2.392-1.271 4.655-1.271s4.654 0.247 4.655 1.271c0 1.468-0.181 2.495 2.76 2.876 2.513 0.325 2.558-1.627 2.535-3.127z"></path>
</symbol>

</defs>
</svg>
