<svg aria-hidden="true" style="position: absolute; width: 0; height: 0; overflow: hidden;" version="1.1" xmlns="http://www.w3.org/2000/svg" xmlns:xlink="http://www.w3.org/1999/xlink">
<defs>
<symbol id="icon-vector-right" viewBox="0 0 32 32">
<path d="M10.667 0l-3.76 3.76 12.213 12.24-12.213 12.24 3.76 3.76 16-16-16-16z"></path>
</symbol>
<symbol id="icon-decorative-element-3" viewBox="0 0 32 32">
<path d="M0 1.629h32v28.715h-32v-28.715z"></path>
</symbol>
<symbol id="icon-decorative-element-1" viewBox="0 0 32 32">
<path d="M14.37 28.532c0.172 0 0.311-0.144 0.311-0.319 0-0.177-0.14-0.319-0.311-0.319-0.172 0-0.311 0.144-0.311 0.319-0.001 0.177 0.139 0.319 0.311 0.319z"></path>
<path d="M13.642 28.324c0.161 0 0.292-0.133 0.292-0.3 0-0.165-0.13-0.3-0.292-0.3-0.161 0-0.292 0.133-0.292 0.3 0.001 0.165 0.131 0.3 0.292 0.3z"></path>
<path d="M12.925 28.106c0.163 0 0.295-0.136 0.295-0.303s-0.132-0.303-0.295-0.303-0.295 0.136-0.295 0.303c0 0.167 0.132 0.303 0.295 0.303z"></path>
<path d="M12.216 27.805c0.139 0 0.25-0.116 0.25-0.257 0-0.142-0.111-0.257-0.25-0.257s-0.25 0.114-0.25 0.257c0 0.142 0.113 0.257 0.25 0.257z"></path>
<path d="M11.522 27.559c0.159 0 0.289-0.133 0.289-0.296s-0.129-0.296-0.289-0.296c-0.159 0-0.288 0.133-0.288 0.296s0.129 0.296 0.288 0.296z"></path>
<path d="M10.838 27.226c0.152 0 0.275-0.126 0.275-0.282s-0.123-0.282-0.275-0.282-0.275 0.127-0.275 0.282c0 0.156 0.124 0.282 0.275 0.282z"></path>
<path d="M10.17 26.843c0.134 0 0.241-0.111 0.241-0.248s-0.108-0.248-0.241-0.248c-0.134 0-0.242 0.111-0.242 0.248 0 0.136 0.108 0.248 0.242 0.248z"></path>
<path d="M9.518 26.463c0.134 0 0.243-0.112 0.243-0.248 0-0.137-0.109-0.248-0.243-0.248s-0.241 0.111-0.241 0.248c0 0.137 0.109 0.248 0.241 0.248z"></path>
<path d="M8.884 26.074c0.144 0 0.261-0.121 0.261-0.268 0-0.149-0.118-0.268-0.261-0.268s-0.261 0.12-0.261 0.268c0 0.148 0.116 0.268 0.261 0.268z"></path>
<path d="M8.267 25.644c0.149 0 0.27-0.123 0.27-0.277 0-0.153-0.12-0.277-0.27-0.277-0.149 0-0.27 0.123-0.27 0.277 0 0.152 0.121 0.277 0.27 0.277z"></path>
<path d="M7.671 25.182c0.152 0 0.275-0.126 0.275-0.282s-0.123-0.282-0.275-0.282-0.275 0.126-0.275 0.282c-0.001 0.156 0.123 0.282 0.275 0.282z"></path>
<path d="M7.095 24.691c0.152 0 0.275-0.127 0.275-0.282 0-0.156-0.124-0.282-0.275-0.282-0.152 0-0.275 0.127-0.275 0.282s0.123 0.282 0.275 0.282z"></path>
<path d="M6.542 24.18c0.157 0 0.284-0.131 0.284-0.291s-0.126-0.291-0.284-0.291c-0.156 0-0.284 0.131-0.284 0.291s0.128 0.291 0.284 0.291z"></path>
<path d="M6.012 23.623c0.151 0 0.272-0.125 0.272-0.28s-0.122-0.28-0.272-0.28-0.272 0.125-0.272 0.28c0 0.154 0.122 0.28 0.272 0.28z"></path>
<path d="M5.506 23.056c0.15 0 0.272-0.125 0.272-0.28s-0.121-0.28-0.272-0.28c-0.15 0-0.272 0.125-0.272 0.28 0 0.154 0.121 0.28 0.272 0.28z"></path>
<path d="M5.026 22.462c0.149 0 0.27-0.125 0.27-0.277s-0.12-0.277-0.27-0.277c-0.149 0-0.27 0.123-0.27 0.277 0 0.153 0.121 0.277 0.27 0.277z"></path>
<path d="M4.571 21.858c0.154 0 0.279-0.127 0.279-0.286 0-0.158-0.125-0.285-0.279-0.285s-0.277 0.127-0.277 0.285c-0.001 0.159 0.124 0.286 0.277 0.286z"></path>
<path d="M4.144 21.142c0.109 0 0.197-0.090 0.197-0.202s-0.088-0.202-0.197-0.202-0.197 0.090-0.197 0.202c0 0.112 0.088 0.202 0.197 0.202z"></path>
<path d="M3.745 20.491c0.109 0 0.197-0.090 0.197-0.202s-0.088-0.202-0.197-0.202c-0.109 0-0.197 0.090-0.197 0.202s0.088 0.202 0.197 0.202z"></path>
<path d="M3.375 19.798c0.097 0 0.175-0.080 0.175-0.18 0-0.099-0.078-0.179-0.175-0.179s-0.175 0.080-0.175 0.179c0 0.1 0.078 0.18 0.175 0.18z"></path>
<path d="M3.036 19.098c0.089 0 0.161-0.074 0.161-0.165s-0.072-0.165-0.161-0.165-0.161 0.074-0.161 0.165c-0.001 0.090 0.072 0.165 0.161 0.165z"></path>
<path d="M2.725 18.369c0.074 0 0.134-0.061 0.134-0.137s-0.059-0.137-0.134-0.137-0.134 0.061-0.134 0.137c0 0.076 0.061 0.137 0.134 0.137z"></path>
<path d="M2.446 17.66c0.077 0 0.139-0.064 0.139-0.142s-0.062-0.142-0.139-0.142-0.139 0.064-0.139 0.142c0 0.079 0.062 0.142 0.139 0.142z"></path>
<path d="M2.198 16.933c0.077 0 0.139-0.064 0.139-0.142s-0.062-0.142-0.139-0.142-0.139 0.064-0.139 0.142c0 0.079 0.062 0.142 0.139 0.142z"></path>
<path d="M1.983 16.092c0.020 0 0.036-0.017 0.036-0.037s-0.016-0.037-0.036-0.037c-0.020 0-0.036 0.017-0.036 0.037-0.001 0.020 0.016 0.037 0.036 0.037z"></path>
<path d="M1.8 15.358c0.027 0 0.050-0.023 0.050-0.051s-0.022-0.051-0.050-0.051c-0.027 0-0.050 0.023-0.050 0.051s0.022 0.051 0.050 0.051z"></path>
<path d="M1.648 14.587c0.019 0 0.033-0.015 0.033-0.034s-0.015-0.034-0.033-0.034c-0.019 0-0.033 0.015-0.033 0.034s0.016 0.034 0.033 0.034z"></path>
<path d="M1.532 13.819c0.014 0 0.025-0.011 0.025-0.025s-0.011-0.025-0.025-0.025c-0.014 0-0.025 0.011-0.025 0.025s0.011 0.025 0.025 0.025z"></path>
<path d="M1.448 13.045c0.009 0 0.016-0.008 0.016-0.017s-0.007-0.017-0.016-0.017-0.016 0.008-0.016 0.017c-0.001 0.009 0.007 0.017 0.016 0.017z"></path>
<path d="M1.397 12.27c0.005 0 0.009-0.004 0.009-0.009s-0.004-0.009-0.009-0.009-0.009 0.004-0.009 0.009c0 0.005 0.004 0.009 0.009 0.009z"></path>
<path d="M28.428 26.066c0.016 0 0.027-0.013 0.027-0.028s-0.012-0.028-0.027-0.028c-0.015 0-0.027 0.013-0.027 0.028s0.012 0.028 0.027 0.028z"></path>
<path d="M27.814 26.529c0.027 0 0.050-0.023 0.050-0.051s-0.022-0.051-0.050-0.051c-0.027 0-0.050 0.023-0.050 0.051s0.022 0.051 0.050 0.051z"></path>
<path d="M27.181 26.943c0.027 0 0.050-0.023 0.050-0.051s-0.022-0.051-0.050-0.051-0.050 0.023-0.050 0.051c-0.001 0.028 0.021 0.051 0.050 0.051z"></path>
<path d="M26.531 27.322c0.025 0 0.045-0.020 0.045-0.046s-0.020-0.046-0.045-0.046c-0.025 0-0.044 0.020-0.044 0.046 0.001 0.024 0.021 0.046 0.044 0.046z"></path>
<path d="M25.867 27.764c0.071 0 0.128-0.058 0.128-0.131s-0.057-0.131-0.128-0.131c-0.071 0-0.128 0.058-0.128 0.131s0.057 0.131 0.128 0.131z"></path>
<path d="M25.188 28.002c0.023 0 0.042-0.019 0.042-0.043s-0.019-0.043-0.042-0.043c-0.024 0-0.042 0.019-0.042 0.043s0.019 0.043 0.042 0.043z"></path>
<path d="M24.496 28.389c0.072 0 0.13-0.060 0.13-0.135 0-0.074-0.058-0.134-0.13-0.134s-0.13 0.060-0.13 0.134c-0.001 0.075 0.058 0.135 0.13 0.135z"></path>
<path d="M23.793 28.655c0.072 0 0.131-0.060 0.131-0.134s-0.058-0.133-0.131-0.133c-0.072 0-0.13 0.060-0.13 0.133-0.001 0.074 0.058 0.134 0.13 0.134z"></path>
<path d="M23.078 28.773c0.010 0 0.016-0.008 0.016-0.017s-0.007-0.018-0.016-0.018-0.016 0.008-0.016 0.018c0 0.009 0.007 0.017 0.016 0.017z"></path>
<path d="M22.355 29.030c0.038 0 0.069-0.032 0.069-0.071s-0.031-0.071-0.069-0.071-0.069 0.032-0.069 0.071c0 0.040 0.031 0.071 0.069 0.071z"></path>
<path d="M21.624 29.273c0.077 0 0.139-0.064 0.139-0.142s-0.062-0.142-0.139-0.142c-0.077 0-0.139 0.064-0.139 0.142s0.062 0.142 0.139 0.142z"></path>
<path d="M20.887 29.473c0.109 0 0.197-0.090 0.197-0.202s-0.088-0.202-0.197-0.202c-0.109 0-0.197 0.090-0.197 0.202s0.088 0.202 0.197 0.202z"></path>
<path d="M20.144 29.63c0.136 0 0.248-0.113 0.248-0.254s-0.11-0.254-0.248-0.254c-0.136 0-0.248 0.113-0.248 0.254s0.111 0.254 0.248 0.254z"></path>
<path d="M19.398 29.709c0.14 0 0.253-0.116 0.253-0.259s-0.114-0.259-0.253-0.259c-0.14 0-0.253 0.116-0.253 0.259s0.113 0.259 0.253 0.259z"></path>
<path d="M18.649 29.733c0.13 0 0.236-0.108 0.236-0.243 0-0.134-0.106-0.243-0.236-0.243s-0.237 0.108-0.237 0.243c0.001 0.135 0.107 0.243 0.237 0.243z"></path>
<path d="M17.9 29.742c0.13 0 0.237-0.108 0.237-0.243s-0.105-0.243-0.237-0.243c-0.13 0-0.236 0.108-0.236 0.243s0.105 0.243 0.236 0.243z"></path>
<path d="M17.151 29.74c0.142 0 0.259-0.118 0.259-0.266 0-0.146-0.115-0.266-0.259-0.266-0.142 0-0.259 0.118-0.259 0.266s0.116 0.266 0.259 0.266z"></path>
<path d="M16.403 29.699c0.152 0 0.275-0.126 0.275-0.282s-0.123-0.282-0.275-0.282-0.275 0.126-0.275 0.282c0 0.156 0.123 0.282 0.275 0.282z"></path>
<path d="M15.658 29.598c0.146 0 0.264-0.122 0.264-0.271 0-0.15-0.119-0.271-0.264-0.271-0.146 0-0.264 0.122-0.264 0.271s0.118 0.271 0.264 0.271z"></path>
<path d="M14.918 29.466c0.141 0 0.255-0.118 0.255-0.263s-0.114-0.262-0.255-0.262c-0.141 0-0.255 0.117-0.255 0.262 0 0.146 0.114 0.263 0.255 0.263z"></path>
<path d="M14.184 29.34c0.156 0 0.284-0.131 0.284-0.291 0-0.161-0.128-0.291-0.284-0.291-0.157 0-0.284 0.131-0.284 0.291-0.001 0.16 0.126 0.291 0.284 0.291z"></path>
<path d="M13.456 29.15c0.155 0 0.281-0.13 0.281-0.289s-0.126-0.289-0.281-0.289-0.281 0.128-0.281 0.289c0.001 0.159 0.126 0.289 0.281 0.289z"></path>
<path d="M12.738 28.913c0.146 0 0.264-0.121 0.264-0.271s-0.119-0.271-0.264-0.271c-0.146 0-0.264 0.121-0.264 0.271s0.118 0.271 0.264 0.271z"></path>
<path d="M12.029 28.663c0.146 0 0.264-0.122 0.264-0.271s-0.118-0.271-0.264-0.271c-0.146 0-0.264 0.121-0.264 0.271s0.118 0.271 0.264 0.271z"></path>
<path d="M11.331 28.404c0.159 0 0.286-0.132 0.286-0.294 0-0.163-0.129-0.294-0.286-0.294-0.159 0-0.286 0.132-0.286 0.294 0 0.163 0.128 0.294 0.286 0.294z"></path>
<path d="M10.645 28.076c0.149 0 0.27-0.123 0.27-0.277 0-0.153-0.12-0.277-0.27-0.277-0.149 0-0.27 0.123-0.27 0.277 0.001 0.152 0.121 0.277 0.27 0.277z"></path>
<path d="M9.974 27.744c0.154 0 0.277-0.127 0.277-0.285s-0.124-0.285-0.277-0.285c-0.154 0-0.277 0.127-0.277 0.285-0.001 0.156 0.124 0.285 0.277 0.285z"></path>
<path d="M9.316 27.376c0.155 0 0.281-0.128 0.281-0.289 0-0.159-0.125-0.289-0.281-0.289-0.155 0-0.281 0.128-0.281 0.289 0.001 0.159 0.126 0.289 0.281 0.289z"></path>
<path d="M8.674 26.986c0.16 0 0.29-0.132 0.29-0.296s-0.13-0.296-0.29-0.296c-0.16 0-0.289 0.134-0.289 0.296s0.13 0.296 0.289 0.296z"></path>
<path d="M8.051 26.558c0.16 0 0.289-0.132 0.289-0.296s-0.129-0.296-0.289-0.296-0.289 0.132-0.289 0.296c-0.001 0.164 0.129 0.296 0.289 0.296z"></path>
<path d="M7.446 26.107c0.161 0 0.292-0.134 0.292-0.3 0-0.165-0.13-0.3-0.292-0.3-0.161 0-0.292 0.134-0.292 0.3s0.131 0.3 0.292 0.3z"></path>
<path d="M6.859 25.584c0.139 0 0.25-0.114 0.25-0.257s-0.113-0.257-0.25-0.257c-0.139 0-0.25 0.114-0.25 0.257 0.001 0.142 0.113 0.257 0.25 0.257z"></path>
<path d="M6.294 25.1c0.149 0 0.27-0.123 0.27-0.277 0-0.153-0.12-0.277-0.27-0.277-0.149 0-0.27 0.123-0.27 0.277 0 0.153 0.121 0.277 0.27 0.277z"></path>
<path d="M5.749 24.585c0.156 0 0.284-0.131 0.284-0.291s-0.128-0.291-0.284-0.291-0.284 0.131-0.284 0.291c0 0.16 0.128 0.291 0.284 0.291z"></path>
<path d="M5.228 23.963c0.12 0 0.217-0.099 0.217-0.223s-0.097-0.222-0.217-0.222c-0.12 0-0.217 0.099-0.217 0.222 0 0.122 0.098 0.223 0.217 0.223z"></path>
<path d="M4.73 23.442c0.149 0 0.27-0.123 0.27-0.277 0-0.153-0.12-0.277-0.27-0.277-0.149 0-0.27 0.123-0.27 0.277 0 0.152 0.121 0.277 0.27 0.277z"></path>
<path d="M4.257 22.794c0.121 0 0.219-0.101 0.219-0.225s-0.098-0.225-0.219-0.225c-0.121 0-0.219 0.1-0.219 0.225-0.001 0.125 0.098 0.225 0.219 0.225z"></path>
<path d="M3.808 22.177c0.121 0 0.219-0.101 0.219-0.225s-0.098-0.225-0.219-0.225c-0.121 0-0.219 0.102-0.219 0.225-0.001 0.125 0.098 0.225 0.219 0.225z"></path>
<path d="M3.386 21.427c0.059 0 0.109-0.050 0.109-0.112 0-0.061-0.048-0.112-0.109-0.112-0.059 0-0.109 0.050-0.109 0.112s0.048 0.112 0.109 0.112z"></path>
<path d="M2.99 20.833c0.092 0 0.167-0.076 0.167-0.172 0-0.094-0.074-0.172-0.167-0.172-0.092 0-0.167 0.076-0.167 0.172s0.076 0.172 0.167 0.172z"></path>
<path d="M2.622 20.042c0.027 0 0.050-0.023 0.050-0.051s-0.022-0.051-0.050-0.051-0.050 0.023-0.050 0.051c0 0.028 0.022 0.051 0.050 0.051z"></path>
<path d="M2.283 19.414c0.058 0 0.105-0.048 0.105-0.108s-0.047-0.108-0.105-0.108c-0.058 0-0.105 0.048-0.105 0.108s0.047 0.108 0.105 0.108z"></path>
<path d="M1.972 18.608c0.001 0 0.003-0.001 0.003-0.003s-0.001-0.003-0.003-0.003c-0.001 0-0.003 0.001-0.003 0.003s0.001 0.003 0.003 0.003z"></path>
<path d="M1.691 17.9c0.005 0 0.009-0.004 0.009-0.009s-0.004-0.009-0.009-0.009-0.009 0.004-0.009 0.009c0 0.005 0.004 0.009 0.009 0.009z"></path>
<path d="M1.439 17.182c0.009 0 0.016-0.008 0.016-0.018 0-0.009-0.007-0.017-0.016-0.017s-0.016 0.008-0.016 0.017c-0.001 0.010 0.006 0.018 0.016 0.018z"></path>
<path d="M1.217 16.468c0.020 0 0.036-0.017 0.036-0.037s-0.016-0.037-0.036-0.037c-0.020 0-0.036 0.017-0.036 0.037 0 0.019 0.016 0.037 0.036 0.037z"></path>
<path d="M25.721 28.655c0.001 0 0.003-0.001 0.003-0.003s-0.001-0.003-0.003-0.003c-0.001 0-0.003 0.001-0.003 0.003 0 0.003 0.001 0.003 0.003 0.003z"></path>
<path d="M24.334 29.238c0.001 0 0.003-0.001 0.003-0.003s-0.001-0.003-0.003-0.003c-0.001 0-0.003 0.001-0.003 0.003s0 0.003 0.003 0.003z"></path>
<path d="M23.623 29.498c0.010 0 0.016-0.008 0.016-0.017s-0.007-0.017-0.016-0.017-0.016 0.008-0.016 0.017c0 0.009 0.007 0.017 0.016 0.017z"></path>
<path d="M20.703 30.175c0.005 0 0.009-0.004 0.009-0.009s-0.004-0.009-0.009-0.009c-0.005 0-0.009 0.004-0.009 0.009s0.004 0.009 0.009 0.009z"></path>
<path d="M19.958 30.269c0.005 0 0.009-0.004 0.009-0.009s-0.004-0.009-0.009-0.009c-0.005 0-0.009 0.004-0.009 0.009s0.004 0.009 0.009 0.009z"></path>
<path d="M19.211 30.35c0.015 0 0.027-0.013 0.027-0.028s-0.012-0.028-0.027-0.028c-0.015 0-0.027 0.012-0.027 0.028s0.012 0.028 0.027 0.028z"></path>
<path d="M18.462 30.442c0.047 0 0.085-0.039 0.085-0.089 0-0.048-0.038-0.089-0.085-0.089s-0.087 0.040-0.087 0.089c0 0.050 0.040 0.089 0.087 0.089z"></path>
<path d="M17.713 30.442c0.048 0 0.087-0.040 0.087-0.089s-0.039-0.089-0.087-0.089c-0.048 0-0.087 0.040-0.087 0.089s0.039 0.089 0.087 0.089z"></path>
<path d="M16.963 30.394c0.038 0 0.069-0.032 0.069-0.071s-0.031-0.071-0.069-0.071-0.069 0.032-0.069 0.071c0 0.038 0.031 0.071 0.069 0.071z"></path>
<path d="M16.215 30.331c0.038 0 0.069-0.032 0.069-0.071s-0.031-0.071-0.069-0.071-0.069 0.032-0.069 0.071c0 0.040 0.031 0.071 0.069 0.071z"></path>
<path d="M15.472 30.245c0.043 0 0.078-0.036 0.078-0.080s-0.035-0.080-0.078-0.080c-0.043 0-0.078 0.036-0.078 0.080s0.035 0.080 0.078 0.080z"></path>
<path d="M14.732 30.144c0.056 0 0.1-0.046 0.1-0.103s-0.045-0.103-0.1-0.103-0.1 0.046-0.1 0.103c0 0.056 0.044 0.103 0.1 0.103z"></path>
<path d="M13.997 30.022c0.074 0 0.134-0.061 0.134-0.137 0-0.075-0.059-0.137-0.134-0.137s-0.134 0.061-0.134 0.137c0.001 0.076 0.061 0.137 0.134 0.137z"></path>
<path d="M13.27 29.789c0.050 0 0.089-0.041 0.089-0.091s-0.040-0.092-0.089-0.092c-0.050 0-0.089 0.041-0.089 0.092s0.040 0.091 0.089 0.091z"></path>
<path d="M12.551 29.778c0.159 0 0.289-0.133 0.289-0.296s-0.129-0.296-0.289-0.296c-0.159 0-0.289 0.133-0.289 0.296s0.129 0.296 0.289 0.296z"></path>
<path d="M11.841 29.46c0.121 0 0.219-0.1 0.219-0.225s-0.098-0.225-0.219-0.225c-0.121 0-0.219 0.101-0.219 0.225s0.098 0.225 0.219 0.225z"></path>
<path d="M11.141 29.067c0.058 0 0.105-0.048 0.105-0.108s-0.047-0.108-0.105-0.108c-0.058 0-0.105 0.048-0.105 0.108s0.047 0.108 0.105 0.108z"></path>
<path d="M10.453 28.957c0.165 0 0.297-0.136 0.297-0.305s-0.134-0.305-0.297-0.305c-0.165 0-0.297 0.137-0.297 0.305 0 0.169 0.133 0.305 0.297 0.305z"></path>
<path d="M9.778 28.57c0.135 0 0.244-0.112 0.244-0.25s-0.109-0.252-0.244-0.252c-0.135 0-0.244 0.112-0.244 0.252-0.001 0.139 0.109 0.25 0.244 0.25z"></path>
<path d="M9.117 28.040c0.045 0 0.081-0.037 0.081-0.083s-0.036-0.083-0.081-0.083-0.081 0.037-0.081 0.083c-0.001 0.046 0.036 0.083 0.081 0.083z"></path>
<path d="M8.469 27.724c0.084 0 0.152-0.070 0.152-0.156s-0.068-0.156-0.152-0.156-0.154 0.070-0.154 0.156c0.001 0.086 0.069 0.156 0.154 0.156z"></path>
<path d="M7.838 27.189c0.020 0 0.036-0.017 0.036-0.037s-0.016-0.037-0.036-0.037c-0.020 0-0.036 0.017-0.036 0.037s0.016 0.037 0.036 0.037z"></path>
<path d="M7.225 26.972c0.141 0 0.255-0.117 0.255-0.262s-0.115-0.262-0.255-0.262c-0.141 0-0.256 0.117-0.256 0.262s0.114 0.262 0.256 0.262z"></path>
<path d="M6.63 26.393c0.082 0 0.147-0.067 0.147-0.151s-0.066-0.151-0.147-0.151c-0.082 0-0.147 0.067-0.147 0.151s0.066 0.151 0.147 0.151z"></path>
<path d="M6.053 25.924c0.094 0 0.17-0.078 0.17-0.174s-0.076-0.174-0.17-0.174-0.17 0.078-0.17 0.174c0 0.097 0.077 0.174 0.17 0.174z"></path>
<path d="M5.496 25.485c0.135 0 0.244-0.112 0.244-0.252 0-0.139-0.109-0.252-0.244-0.252s-0.244 0.113-0.244 0.252c-0.001 0.139 0.109 0.252 0.244 0.252z"></path>
<path d="M4.96 24.76c0.036 0 0.064-0.029 0.064-0.066s-0.029-0.066-0.064-0.066-0.064 0.029-0.064 0.066c0.001 0.037 0.030 0.066 0.064 0.066z"></path>
<path d="M4.447 24.154c0.011 0 0.020-0.009 0.020-0.020s-0.009-0.020-0.020-0.020-0.020 0.009-0.020 0.020c0 0.012 0.009 0.020 0.020 0.020z"></path>
<path d="M3.956 23.653c0.053 0 0.098-0.044 0.098-0.1 0-0.055-0.043-0.1-0.098-0.1-0.053 0-0.098 0.044-0.098 0.1 0.001 0.055 0.045 0.1 0.098 0.1z"></path>
<path d="M3.489 22.954c0.001 0 0.003-0.001 0.003-0.003s-0.001-0.003-0.003-0.003-0.003 0.001-0.003 0.003c-0.001 0.001 0 0.003 0.003 0.003z"></path>
<path d="M3.045 22.356c0.014 0 0.025-0.011 0.025-0.025s-0.011-0.025-0.025-0.025-0.025 0.011-0.025 0.025c0 0.014 0.011 0.025 0.025 0.025z"></path>
<path d="M2.627 21.7c0.005 0 0.009-0.004 0.009-0.009s-0.004-0.009-0.009-0.009c-0.005 0-0.009 0.004-0.009 0.009s0.005 0.009 0.009 0.009z"></path>
<path d="M2.234 21.044c0.005 0 0.009-0.004 0.009-0.009s-0.004-0.009-0.009-0.009c-0.005 0-0.009 0.004-0.009 0.009 0.001 0.005 0.005 0.009 0.009 0.009z"></path>
<path d="M1.219 18.98c0.001 0 0.003-0.001 0.003-0.003s-0.001-0.003-0.003-0.003c-0.001 0-0.003 0.001-0.003 0.003-0.001 0.001 0 0.003 0.003 0.003z"></path>
<path d="M12.364 30.346c0.014 0 0.025-0.011 0.025-0.025s-0.011-0.025-0.025-0.025c-0.014 0-0.025 0.011-0.025 0.025s0.011 0.025 0.025 0.025z"></path>
<path d="M11.653 30.086c0.005 0 0.009-0.004 0.009-0.009s-0.004-0.009-0.009-0.009c-0.005 0-0.009 0.004-0.009 0.009 0.001 0.005 0.004 0.009 0.009 0.009z"></path>
<path d="M10.952 29.808c0.001 0 0.003-0.001 0.003-0.003s-0.001-0.003-0.003-0.003c-0.001 0-0.003 0.001-0.003 0.003s0.001 0.003 0.003 0.003z"></path>
<path d="M10.261 29.525c0.011 0 0.020-0.009 0.020-0.020s-0.009-0.020-0.020-0.020-0.020 0.009-0.020 0.020c0.001 0.011 0.010 0.020 0.020 0.020z"></path>
<path d="M9.582 29.198c0.011 0 0.020-0.009 0.020-0.020s-0.009-0.020-0.020-0.020-0.020 0.009-0.020 0.020c0.001 0.011 0.010 0.020 0.020 0.020z"></path>
<path d="M8.917 28.827c0.001 0 0.003-0.001 0.003-0.003s-0.001-0.003-0.003-0.003c-0.001 0-0.003 0.001-0.003 0.003s0.001 0.003 0.003 0.003z"></path>
<path d="M8.266 28.46c0.009 0 0.016-0.008 0.016-0.017s-0.007-0.017-0.016-0.017-0.017 0.008-0.017 0.017c0 0.009 0.007 0.017 0.017 0.017z"></path>
<path d="M7.628 28.045c0.005 0 0.009-0.004 0.009-0.009s-0.004-0.009-0.009-0.009-0.009 0.004-0.009 0.009c0.001 0.006 0.005 0.009 0.009 0.009z"></path>
<path d="M7.008 27.614c0.005 0 0.009-0.004 0.009-0.009s-0.004-0.009-0.009-0.009-0.009 0.004-0.009 0.009c0 0.005 0.004 0.009 0.009 0.009z"></path>
<path d="M6.404 27.157c0.005 0 0.009-0.004 0.009-0.009s-0.004-0.009-0.009-0.009c-0.005 0-0.009 0.004-0.009 0.009s0.004 0.009 0.009 0.009z"></path>
<path d="M5.817 26.687c0.009 0 0.016-0.008 0.016-0.017s-0.007-0.017-0.016-0.017c-0.009 0-0.016 0.008-0.016 0.017s0.007 0.017 0.016 0.017z"></path>
<path d="M5.25 26.169c0.001 0 0.003-0.001 0.003-0.003s-0.001-0.003-0.003-0.003c-0.001 0-0.003 0.001-0.003 0.003s0.001 0.003 0.003 0.003z"></path>
<path d="M4.702 25.644c0.001 0 0.003-0.001 0.003-0.003s-0.001-0.003-0.003-0.003c-0.001 0-0.003 0.001-0.003 0.003s0.001 0.003 0.003 0.003z"></path>
<path d="M4.175 25.096c0.001 0 0.003-0.001 0.003-0.003s-0.001-0.003-0.003-0.003c-0.001 0-0.003 0.001-0.003 0.003-0.001 0.001 0.001 0.003 0.003 0.003z"></path>
<path d="M3.669 24.529c0.001 0 0.003-0.001 0.003-0.003s-0.001-0.003-0.003-0.003c-0.001 0-0.003 0.001-0.003 0.003s0 0.003 0.003 0.003z"></path>
<path d="M2.722 23.335c0.001 0 0.003-0.001 0.003-0.003s-0.001-0.003-0.003-0.003c-0.001 0-0.003 0.001-0.003 0.003s0.001 0.003 0.003 0.003z"></path>
<path d="M9.389 30.037c0.001 0 0.003-0.001 0.003-0.003s-0.001-0.003-0.003-0.003c-0.001 0-0.003 0.001-0.003 0.003s0 0.003 0.003 0.003z"></path>
<path d="M8.719 29.69c0.001 0 0.003-0.001 0.003-0.003s-0.001-0.003-0.003-0.003c-0.001 0-0.003 0.001-0.003 0.003s0.001 0.003 0.003 0.003z"></path>
<path d="M8.063 29.319c0.001 0 0.003-0.001 0.003-0.003s-0.001-0.003-0.003-0.003c0 0-0.003 0.001-0.003 0.003s0.001 0.003 0.003 0.003z"></path>
<path d="M7.421 28.921c0.001 0 0.003-0.001 0.003-0.003s-0.001-0.003-0.003-0.003c-0.001 0-0.003 0.001-0.003 0.003s0.001 0.003 0.003 0.003z"></path>
<path d="M6.795 28.5c0.001 0 0.003-0.001 0.003-0.003s-0.001-0.003-0.003-0.003-0.003 0.001-0.003 0.003c-0.001 0.001 0 0.003 0.003 0.003z"></path>
<path d="M6.183 28.054c0.001 0 0.003-0.001 0.003-0.003s-0.001-0.003-0.003-0.003c-0.001 0-0.003 0.001-0.003 0.003s0 0.003 0.003 0.003z"></path>
<path d="M5.588 27.586c0.001 0 0.003-0.001 0.003-0.003s-0.001-0.003-0.003-0.003c-0.001 0-0.003 0.001-0.003 0.003-0.001 0.001 0 0.003 0.003 0.003z"></path>
<path d="M3.391 25.493c0.001 0 0.003-0.001 0.003-0.003s-0.001-0.003-0.003-0.003c-0.001 0-0.003 0.001-0.003 0.003s0.001 0.003 0.003 0.003z"></path>
<path d="M2.892 24.919c0.001 0 0.003-0.001 0.003-0.003s-0.001-0.003-0.003-0.003c-0.001 0-0.003 0.001-0.003 0.003-0.001 0.001 0 0.003 0.003 0.003z"></path>
<path d="M2.413 24.327c0.001 0 0.003-0.001 0.003-0.003s-0.001-0.003-0.003-0.003c-0.001 0-0.003 0.001-0.003 0.003s0.001 0.003 0.003 0.003z"></path>
<path d="M8.523 30.554c0.001 0 0.003-0.001 0.003-0.003s-0.001-0.003-0.003-0.003c-0.001 0-0.003 0.001-0.003 0.003-0.001 0.001 0 0.003 0.003 0.003z"></path>
<path d="M4.776 28.022c0.006 0 0.011-0.005 0.011-0.012s-0.005-0.012-0.011-0.012-0.011 0.005-0.011 0.012c0 0.007 0.005 0.012 0.011 0.012z"></path>
<path d="M2.61 25.887c0.001 0 0.003-0.001 0.003-0.003s-0.001-0.003-0.003-0.003c-0.001 0-0.003 0.001-0.003 0.003s0.001 0.003 0.003 0.003z"></path>
<path d="M2.117 25.307c0.001 0 0.003-0.001 0.003-0.003s-0.001-0.003-0.003-0.003c-0.001 0-0.003 0.001-0.003 0.003s0.001 0.003 0.003 0.003z"></path>
<path d="M5.14 29.396c0.001 0 0.003-0.001 0.003-0.003s-0.001-0.003-0.003-0.003c-0.001 0-0.003 0.001-0.003 0.003s0.001 0.003 0.003 0.003z"></path>
<path d="M4.547 28.926c0.001 0 0.003-0.001 0.003-0.003s-0.001-0.003-0.003-0.003c-0.001 0-0.003 0.001-0.003 0.003-0.001 0.001 0 0.003 0.003 0.003z"></path>
<path d="M0.429 24.475c0.001 0 0.003-0.001 0.003-0.003s-0.001-0.003-0.003-0.003c-0.001 0-0.003 0.001-0.003 0.003s0.001 0.003 0.003 0.003z"></path>
<path d="M0.003 23.842c0.001 0 0.003-0.001 0.003-0.003s-0.001-0.003-0.003-0.003c-0.001 0-0.003 0.001-0.003 0.003s0.001 0.003 0.003 0.003z"></path>
</symbol>
<symbol id="icon-pinterest" viewBox="0 0 32 32">
<path d="M0 0h32v32h-32v-32z"></path>
</symbol>
<symbol id="icon-google" viewBox="0 0 32 32">
<path fill="#34383d" style="fill: var(--color1, #34383d)" d="M3.2 0h25.6c1.767 0 3.2 1.433 3.2 3.2v25.6c0 1.767-1.433 3.2-3.2 3.2h-25.6c-1.767 0-3.2-1.433-3.2-3.2v-25.6c0-1.767 1.433-3.2 3.2-3.2z"></path>
<path fill="#000" style="fill: var(--color2, #000)" d="M6.4 6.4h19.2v19.2h-19.2v-19.2z"></path>
</symbol>
<symbol id="icon-twitter" viewBox="0 0 32 32">
<path d="M0 0h32v32h-32v-32z"></path>
</symbol>
<symbol id="icon-linkedin" viewBox="0 0 32 32">
<path d="M0 0h32v32h-32v-32z"></path>
</symbol>
<symbol id="icon-insta" viewBox="0 0 32 32">
<path d="M0 0h32v32h-32v-32z"></path>
</symbol>
<symbol id="icon-facebook" viewBox="0 0 32 32">
<path d="M0 0h32v32h-32v-32z"></path>
</symbol>
<symbol id="icon-two-arrows" viewBox="0 0 32 32">
<path d="M9.649 19.718c0.008 1.247 0.019 2.492 0.030 3.74-1.969-3.365-3.062-7.162-3.178-11.075-0.13-4.331 1.079-8.019 2.647-11.976 0.152-0.388-0.409-0.542-0.621-0.26-2.557 3.414-3.482 8.301-3.382 12.485 0.095 4.019 1.166 7.935 3.146 11.414-1.256-0.819-2.367-1.86-3.235-3.081-0.228-0.32-0.735-0.041-0.537 0.315 1.261 2.254 3.075 3.989 5.473 5.001 0.404 0.171 0.9-0.019 0.9-0.518 0.003-2.015 0.003-4.033 0-6.047 0.003-0.8-1.247-0.8-1.242 0.003z"></path>
<path d="M27.688 30.994c-0.583-2.183-1.38-4.279-2.359-6.316-0.35-0.727-1.432-0.092-1.082 0.632 0.637 1.321 1.177 2.674 1.649 4.054-3.463-2.408-6.286-5.611-8.263-9.34-2.031-3.832-2.636-7.764-3.295-11.984-0.027-0.171-0.317-0.171-0.344 0-0.681 4.217 0.729 8.849 2.595 12.594 1.665 3.341 4.022 6.27 6.883 8.632-1.304-0.513-2.595-1.060-3.924-1.567-0.347-0.133-0.48 0.363-0.233 0.553 2.202 1.676 5.001 2.706 7.631 3.485 0.445 0.133 0.86-0.306 0.743-0.743z"></path>
</symbol>
<symbol id="icon-star-dark" viewBox="0 0 32 32">
<path d="M16 25.232l9.064 5.968-2.405-11.248 8.008-7.568-10.545-0.976-4.121-10.608-4.121 10.608-10.545 0.976 8.008 7.568-2.405 11.248 9.064-5.968z"></path>
</symbol>
<symbol id="icon-decorative-element-6" viewBox="0 0 32 32">
<path d="M0.401 17.049c0.643 0.118 1.285 0.236 1.929 0.353 0.194 0.036 0.348-0.076 0.311-0.178-0.073-0.2-0.146-0.4-0.217-0.6 2.208-0.331 4.551-0.201 6.743 0.171 2.333 0.396 4.646 1.293 7.172 1.085 0.536-0.044 1.19-0.171 1.811-0.361 0.918 0.573 2.261 0.971 3.49 1.086 1.632 0.153 3.296-0.172 4.393-0.851 1.538 0.155 3.317-0.132 4.551-0.564 2.253-0.79 3.545-2.25 3.356-3.755-0.014-0.105-0.295-0.107-0.289 0 0.080 1.142-0.663 2.28-2.129 3.067-1.333 0.715-3.312 1.172-5.158 1.024 0.148-0.115 0.281-0.238 0.398-0.368 0.732-0.821 0.686-2.494-1.563-2.405-2.052 0.081-2.515 1.437-1.408 2.259 0.455 0.338 1.049 0.552 1.709 0.67-0.947 0.517-2.28 0.774-3.615 0.674-1.185-0.089-2.443-0.448-3.311-0.978 1.198-0.438 2.124-1.115 1.576-1.882-0.324-0.454-1.162-0.664-1.954-0.467-0.888 0.221-1.282 0.764-1.129 1.291 0.106 0.364 0.389 0.701 0.786 0.999-1.217 0.355-2.698 0.382-4.045 0.161-1.081-0.177-2.097-0.458-3.146-0.687-1.042-0.228-2.12-0.408-3.22-0.52-1.705-0.173-3.457-0.18-5.124 0.068-0.038-0.104-0.076-0.209-0.114-0.313-0.006-0.094-0.007-0.187-0.005-0.281 0.002-0.070-0.093-0.116-0.197-0.127-0.11-0.047-0.293-0.023-0.381 0.043-0.524 0.398-1.047 0.797-1.575 1.194-0.172 0.129 0.139 0.257 0.351 0.192zM23.769 16.474c-0.307-0.467-0.15-1.012 0.618-1.293 0.823-0.301 1.855-0.172 2.219 0.373 0.315 0.471 0.141 1.031-0.248 1.47-0.142 0.161-0.314 0.309-0.508 0.444-0.918-0.139-1.734-0.467-2.081-0.993zM17.623 16.476c-0.276-0.502 0.064-1.247 1.189-1.254 0.515-0.003 0.869 0.247 0.972 0.516 0.121 0.316-0.13 0.63-0.457 0.877-0.304 0.229-0.66 0.415-1.051 0.563-0.288-0.213-0.514-0.448-0.652-0.702z"></path>
</symbol>
<symbol id="icon-comment" viewBox="0 0 32 32">
<path fill="#fff" style="fill: var(--color3, #fff)" d="M0 16.192c0.405-6.988 3.468-12.084 9.776-14.788 5.889-2.526 11.498-1.601 16.493 2.434 3.011 2.432 4.789 5.659 5.461 9.464 0.625 3.535 0.082 6.915-1.573 10.103-0.167 0.323-0.196 0.592-0.087 0.933 0.625 1.986 1.223 3.982 1.842 5.97 0.159 0.512 0.114 0.962-0.287 1.337-0.419 0.393-0.887 0.422-1.414 0.207-1.786-0.729-3.582-1.433-5.367-2.163-0.246-0.101-0.424-0.094-0.652 0.043-2.748 1.649-5.732 2.384-8.927 2.252-7.168-0.295-13.379-5.56-14.827-12.596-0.228-1.108-0.31-2.247-0.438-3.196zM29.044 28.902c-0.047-0.171-0.072-0.272-0.102-0.372-0.419-1.406-0.824-2.817-1.267-4.215-0.167-0.528-0.109-0.974 0.163-1.454 1.753-3.086 2.267-6.37 1.517-9.845-1.875-8.692-11.564-13.356-19.523-9.396-5.759 2.865-8.749 9.14-7.343 15.442 1.248 5.594 6.005 10.089 12.188 10.649 3.227 0.292 6.208-0.483 8.909-2.285 0.459-0.305 0.897-0.355 1.405-0.146 1.323 0.544 2.655 1.064 4.054 1.622z"></path>
<path fill="#fff" style="fill: var(--color3, #fff)" d="M10.329 16.057c-0.003 1.266-1.016 2.269-2.288 2.267-1.265-0.003-2.268-1.016-2.265-2.29 0.003-1.266 1.015-2.269 2.288-2.266 1.266 0.002 2.268 1.014 2.265 2.289z"></path>
<path fill="#fff" style="fill: var(--color3, #fff)" d="M13.75 16.052c-0.002-1.273 1.002-2.283 2.269-2.284 1.272-0.002 2.283 1.003 2.284 2.271 0.002 1.273-1.002 2.284-2.27 2.285-1.27 0.001-2.281-1.005-2.283-2.272z"></path>
<path fill="#fff" style="fill: var(--color3, #fff)" d="M24.021 13.768c1.263 0.005 2.261 1.021 2.256 2.298-0.005 1.263-1.021 2.262-2.298 2.257-1.262-0.005-2.261-1.023-2.256-2.299 0.006-1.263 1.021-2.261 2.298-2.256z"></path>
</symbol>
<symbol id="icon-calendar" viewBox="0 0 32 32">
<path fill="#fff" style="fill: var(--color3, #fff)" d="M26.439 32c-6.956 0-13.914 0-20.87 0-0.069-0.021-0.135-0.052-0.206-0.061-2.979-0.363-5.348-3.005-5.352-6.002-0.008-5.779-0.024-11.559 0.008-17.339 0.013-2.42 1.172-4.218 3.268-5.407 0.944-0.536 1.979-0.738 3.057-0.739 0.338-0.001 0.678 0 1.034 0 0-0.13-0.002-0.212 0-0.294 0.008-0.395-0.032-0.798 0.034-1.184 0.104-0.616 0.713-1.024 1.342-0.964 0.619 0.058 1.108 0.584 1.121 1.218 0.008 0.402 0.002 0.804 0.002 1.199 4.108 0 8.172 0 12.252 0 0-0.348-0.011-0.67 0.003-0.991 0.010-0.216 0.019-0.442 0.090-0.642 0.196-0.546 0.786-0.871 1.351-0.779 0.602 0.098 1.040 0.6 1.051 1.216 0.007 0.402 0.002 0.804 0.002 1.224 0.465 0 0.882-0.010 1.297 0.002 2.862 0.079 5.227 1.985 5.912 4.762 0.059 0.239 0.109 0.48 0.164 0.72 0 6.187 0 12.374 0 18.561-0.020 0.057-0.050 0.113-0.059 0.171-0.383 2.329-1.667 3.961-3.833 4.874-0.526 0.222-1.11 0.307-1.668 0.455zM29.502 12.364c-9.018 0-17.998 0-26.996 0 0 0.138 0 0.252 0 0.365 0 4.301 0 8.602 0 12.904 0 2.259 1.587 3.862 3.844 3.863 6.435 0.004 12.87 0.003 19.305-0.002 0.3 0 0.607-0.019 0.899-0.084 1.776-0.393 2.946-1.857 2.947-3.681 0.003-4.353 0.001-8.706 0.001-13.060 0-0.093 0-0.186 0-0.305zM24.626 5.008c0 0.83 0.007 1.642-0.003 2.452-0.008 0.569-0.441 1.064-0.99 1.165-0.81 0.147-1.497-0.42-1.502-1.249-0.005-0.789-0.001-1.577-0.001-2.382-4.096 0-8.159 0-12.251 0 0 0.121 0 0.223 0 0.325 0 0.698 0.006 1.395-0.002 2.093-0.008 0.699-0.571 1.247-1.259 1.242-0.681-0.007-1.226-0.541-1.235-1.229-0.008-0.677-0.003-1.354-0.003-2.030 0-0.132 0-0.263 0-0.389-3.45-0.408-5.226 1.765-4.839 4.803 8.977 0 17.954 0 26.93 0 0.387-3.174-1.527-5.214-4.844-4.8z"></path>
<path fill="#fff" style="fill: var(--color3, #fff)" d="M23.389 16.002c0.416 0 0.832-0.005 1.248 0.001 0.679 0.010 1.225 0.564 1.23 1.239 0.005 0.673-0.541 1.246-1.216 1.254-0.843 0.010-1.686 0.009-2.528 0.001-0.676-0.007-1.227-0.57-1.231-1.24-0.006-0.68 0.556-1.247 1.248-1.254 0.416-0.004 0.832-0.001 1.249-0.001z"></path>
<path fill="#fff" style="fill: var(--color3, #fff)" d="M16.004 23.375c0.427 0 0.853-0.009 1.28 0.003 0.66 0.017 1.195 0.574 1.201 1.236 0.006 0.653-0.533 1.242-1.186 1.254-0.863 0.017-1.727 0.015-2.591 0.001-0.658-0.011-1.193-0.579-1.197-1.24-0.004-0.678 0.531-1.236 1.213-1.252 0.426-0.009 0.853-0.002 1.28-0.002z"></path>
<path fill="#fff" style="fill: var(--color3, #fff)" d="M8.639 16.002c0.416 0 0.832-0.005 1.248 0.001 0.675 0.011 1.225 0.572 1.227 1.244 0.002 0.67-0.547 1.242-1.222 1.249-0.843 0.009-1.686 0.009-2.528 0-0.678-0.007-1.224-0.571-1.225-1.244s0.546-1.237 1.22-1.249c0.426-0.007 0.852-0.001 1.279-0.001z"></path>
<path fill="#fff" style="fill: var(--color3, #fff)" d="M16.019 16.002c0.416 0 0.832-0.006 1.248 0.002 0.671 0.012 1.223 0.586 1.217 1.254-0.006 0.659-0.546 1.229-1.201 1.238-0.853 0.012-1.706 0.011-2.56 0.001-0.676-0.008-1.217-0.579-1.213-1.254 0.004-0.678 0.547-1.229 1.228-1.239 0.428-0.007 0.854-0.002 1.281-0.002z"></path>
<path fill="#fff" style="fill: var(--color3, #fff)" d="M8.646 23.375c0.416 0 0.833-0.007 1.248 0.002 0.68 0.015 1.223 0.576 1.221 1.248-0.003 0.669-0.553 1.237-1.229 1.244-0.843 0.010-1.686 0.011-2.528-0.001-0.673-0.009-1.221-0.583-1.218-1.252 0.003-0.677 0.54-1.226 1.227-1.24 0.427-0.008 0.854-0.001 1.28-0.001z"></path>
<path fill="#fff" style="fill: var(--color3, #fff)" d="M23.387 23.376c0.427 0 0.853-0.009 1.28 0.002 0.663 0.017 1.195 0.57 1.201 1.234 0.006 0.656-0.53 1.243-1.182 1.256-0.874 0.017-1.749 0.018-2.622-0.001-0.649-0.014-1.188-0.619-1.171-1.268 0.017-0.652 0.541-1.201 1.184-1.221 0.437-0.012 0.874-0.003 1.311-0.003z"></path>
</symbol>
<symbol id="icon-decorative-element-5" viewBox="0 0 32 32">
<path d="M31.762 11.363c-0.197-0.3-0.539-0.385-0.845-0.482-0.482-0.154-0.969-0.307-1.461-0.424-0.149-0.035-0.264 0.207-0.109 0.287 0.241 0.125 0.488 0.234 0.736 0.345 0.265 0.12 0.68 0.215 0.906 0.404 0.012 0.010 0.023 0.022 0.035 0.032-2.125 1.786-4.809 2.69-7.482 2.38-0.080-0.010-0.161-0.020-0.241-0.032 0.78-0.559 1.353-1.39 1.49-2.56 0.235-2.019-1.174-3.843-3.045-3.841-1.72 0.002-3.123 1.857-2.79 3.725 0.265 1.48 1.355 2.368 2.597 2.867-2.295 0.652-5.011-0.279-7.084-1.173-2.435-1.050-5.096-2.545-7.767-1.612-1.946 0.681-3.362 2.628-3.536 4.864-0.005 0.055-0.008 0.11-0.009 0.167-0.683 0.229-1.327 0.566-1.857 0.954-2.13 1.559-3.239 4.282-2.978 7.064 0.012 0.134 0.203 0.139 0.194 0-0.2-3.004 1.206-5.924 3.723-7.212 0.287-0.147 0.595-0.277 0.913-0.384 0.061 1.974 1.116 4.457 3.099 4.524 1.896 0.064 2.441-2.513 1.421-3.918-0.96-1.325-2.514-1.532-3.978-1.183 0.094-1.113 0.519-2.171 1.235-2.995 2.183-2.515 5.408-1.514 7.958-0.36 2.451 1.108 4.985 2.239 7.693 2.004 0.631-0.055 1.273-0.199 1.861-0.451 0.467 0.12 0.933 0.194 1.365 0.23 2.67 0.23 5.352-0.666 7.491-2.421 0 0.199-0.046 0.412-0.074 0.642-0.045 0.367-0.094 0.733-0.133 1.101-0.038 0.354 0.519 0.439 0.569 0.085 0.074-0.534 0.135-1.071 0.196-1.609 0.041-0.354 0.108-0.711-0.093-1.018zM6.594 16.935c1.15 0.753 1.837 3.259 0.045 3.721-1.704 0.441-2.793-2.006-2.938-3.479-0.020-0.2-0.027-0.399-0.026-0.597 0.995-0.239 2.054-0.21 2.919 0.355zM22.459 13.704c-0.846-0.22-1.666-0.611-2.272-1.293-0.986-1.108-0.907-2.835 0.221-3.796 1.132-0.965 2.831-0.442 3.519 0.888 0.74 1.428 0.103 3.249-1.144 4.018-0.106 0.067-0.215 0.127-0.325 0.184z"></path>
</symbol>
<symbol id="icon-decorative-element-4" viewBox="0 0 32 32">
<path d="M0.481 26.879c0.71-0.034 1.418-0.066 2.128-0.1 0.215-0.010 0.296-0.304 0.196-0.498-0.197-0.379-0.395-0.759-0.591-1.138 1.974-1.623 4.37-2.359 6.77-2.533 2.554-0.185 5.403 0.666 7.767-0.841 0.502-0.32 1.069-0.859 1.562-1.514 1.267 0.784 2.843 1.024 4.13 0.734 1.709-0.384 3.148-1.764 3.806-3.624 1.617-0.34 3.194-1.69 4.142-3.104 1.73-2.583 2.090-6.132 0.959-9.14-0.079-0.209-0.359-0.094-0.285 0.123 0.795 2.308 0.777 4.961-0.178 7.202-0.868 2.038-2.536 3.822-4.453 4.307 0.074-0.298 0.128-0.608 0.162-0.925 0.208-1.997-0.888-5.411-3.054-4.266-1.976 1.044-1.583 4.023 0.027 5.238 0.661 0.499 1.383 0.684 2.109 0.643-0.611 1.465-1.767 2.563-3.149 2.929-1.227 0.324-2.694 0.126-3.885-0.59 0.909-1.411 1.399-3.196 0.376-4.535-0.605-0.792-1.565-0.865-2.224-0.123-0.739 0.832-0.787 2.115-0.305 3.131 0.333 0.701 0.824 1.272 1.404 1.713-0.98 1.248-2.426 1.938-3.895 2.061-1.179 0.099-2.359-0.042-3.539-0.063-1.173-0.023-2.351 0.069-3.508 0.31-1.793 0.374-3.529 1.11-5.020 2.331-0.102-0.198-0.206-0.396-0.309-0.594-0.064-0.19-0.124-0.38-0.181-0.575-0.042-0.145-0.165-0.198-0.274-0.176-0.138-0.049-0.304 0.077-0.349 0.251-0.268 1.040-0.534 2.082-0.807 3.123-0.089 0.338 0.298 0.468 0.468 0.244zM23.207 15.703c-0.597-0.828-0.784-2.012-0.201-2.918 0.624-0.969 1.725-1.146 2.426-0.184 0.607 0.832 0.787 2.055 0.678 3.121-0.039 0.391-0.116 0.767-0.223 1.128-0.995 0.107-2.007-0.216-2.68-1.148zM17.137 18.335c-0.588-0.912-0.72-2.586 0.388-3.081 0.507-0.227 1.014 0.134 1.284 0.642 0.318 0.597 0.268 1.348 0.099 1.994-0.156 0.6-0.392 1.134-0.685 1.605-0.418-0.314-0.789-0.7-1.085-1.16z"></path>
</symbol>
<symbol id="icon-money" viewBox="0 0 32 32">
<path d="M2.428 32c-0.276-0.18-0.402-0.434-0.46-0.763-0.643-3.689-1.299-7.377-1.95-11.065-0.078-0.441 0.104-0.742 0.548-0.826 1.105-0.207 2.209-0.423 3.321-0.576 1.087-0.149 1.997 0.557 2.225 1.65 0.023 0.11 0.046 0.219 0.074 0.348 0.715-0.246 1.402-0.482 2.056-0.707-0.069-0.702-0.171-1.379-0.194-2.060-0.049-1.489 0.34-2.881 1.019-4.199 1.256-2.442 2.506-4.887 3.771-7.325 0.126-0.243 0.114-0.42-0.005-0.654-0.608-1.185-1.2-2.376-1.791-3.57-0.326-0.659-0.229-1.317 0.244-1.785 0.442-0.439 1.101-0.555 1.673-0.276 0.29 0.141 0.564 0.312 0.845 0.472 0.529 0.301 0.711 0.291 1.177-0.102 0.663-0.56 1.391-0.739 2.199-0.366 0.224 0.103 0.42 0.268 0.626 0.409 0.353 0.242 0.626 0.236 0.97-0.023 0.978-0.74 1.738-0.769 2.724-0.020 0.487 0.371 0.915 0.427 1.412 0.065 0.209-0.153 0.447-0.265 0.676-0.39 0.646-0.352 1.293-0.286 1.788 0.18 0.488 0.458 0.605 1.12 0.288 1.777-0.592 1.227-1.192 2.451-1.802 3.669-0.104 0.208-0.107 0.364 0 0.575 1.333 2.625 2.655 5.254 3.975 7.886 0.125 0.25 0.225 0.515 0.313 0.781 0.114 0.349-0.039 0.675-0.353 0.8-0.308 0.124-0.633-0.019-0.799-0.353-1.397-2.812-2.796-5.624-4.184-8.442-0.117-0.237-0.244-0.33-0.514-0.328-2.625 0.011-5.252 0.009-7.877 0.002-0.245-0.001-0.384 0.061-0.504 0.296-1.243 2.448-2.5 4.89-3.758 7.332-0.805 1.563-1.069 3.203-0.73 4.934 0.012 0.061 0.027 0.122 0.045 0.182 0.009 0.029 0.028 0.054 0.015 0.030 0.731-0.152 1.434-0.36 2.151-0.434 1.57-0.161 2.979 0.311 4.245 1.237 1.395 1.021 2.784 2.051 4.191 3.054 0.683 0.486 1.232 1.030 1.22 1.938 0.947 0.105 1.745-0.128 2.412-0.804 1.456-1.475 2.926-2.938 4.393-4.402 0.795-0.793 1.766-0.981 2.677-0.512 0.552 0.284 0.928 0.726 1.106 1.328 0.029 0.098 0.074 0.191 0.111 0.286 0 0.208 0 0.416 0 0.625-0.118 0.478-0.316 0.913-0.641 1.294-0.757 0.888-1.496 1.79-2.254 2.677-0.704 0.823-1.368 1.691-2.147 2.435-1.775 1.695-3.939 2.47-6.388 2.467-2.802-0.002-5.606-0.001-8.408-0.001-0.569 0-0.864-0.217-0.86-0.631s0.29-0.618 0.87-0.618c2.813 0 5.627 0.004 8.439-0.002 2.337-0.005 4.339-0.815 5.918-2.56 0.789-0.872 1.528-1.789 2.288-2.689 0.565-0.668 1.135-1.331 1.683-2.013 0.482-0.6 0.21-1.402-0.515-1.568-0.412-0.095-0.724 0.092-1.003 0.372-1.471 1.475-2.947 2.945-4.416 4.423-0.543 0.546-1.172 0.953-1.932 1.077-0.53 0.086-1.078 0.058-1.618 0.088-0.107 0.006-0.24 0.020-0.312 0.084-0.745 0.657-1.548 0.679-2.404 0.25-1.051-0.527-2.117-1.025-3.152-1.582-0.714-0.384-1.434-0.654-2.257-0.548-0.070 0.009-0.146-0.004-0.218-0.015-0.31-0.046-0.535-0.293-0.543-0.592-0.008-0.293 0.204-0.581 0.518-0.606 0.798-0.063 1.587-0.107 2.345 0.29 1.28 0.672 2.58 1.306 3.884 1.93 0.215 0.102 0.521 0.164 0.734 0.092 0.565-0.189 0.588-0.874 0.062-1.259-1.528-1.121-3.056-2.243-4.591-3.354-1.182-0.856-2.501-1.185-3.931-0.873-0.727 0.159-1.43 0.439-2.139 0.676-0.865 0.29-1.727 0.591-2.614 0.896 0.128 0.73 0.251 1.435 0.374 2.14 0.292 1.67 0.598 3.338 0.871 5.012 0.148 0.91-0.384 1.816-1.238 2.119-0.398 0.141-0.83 0.189-1.248 0.272-0.763 0.149-1.528 0.292-2.291 0.438-0.145 0.002-0.29 0.002-0.437 0.002zM18.372 5.539c1.322 0 2.644-0.005 3.967 0.005 0.215 0.002 0.331-0.057 0.427-0.261 0.439-0.93 0.9-1.85 1.352-2.775 0.128-0.261 0.271-0.517 0.375-0.787 0.045-0.115 0.007-0.261 0.008-0.394-0.122 0.012-0.262-0.009-0.364 0.042-0.306 0.153-0.586 0.363-0.9 0.498-0.3 0.129-0.623 0.237-0.946 0.275-0.597 0.068-1.074-0.242-1.535-0.583-0.511-0.379-0.718-0.368-1.219 0.016-0.796 0.611-1.662 0.622-2.477 0.034-0.676-0.488-0.763-0.482-1.435 0.045-0.702 0.549-1.454 0.622-2.244 0.206-0.267-0.14-0.517-0.315-0.789-0.442-0.122-0.057-0.28-0.039-0.422-0.055 0.012 0.143-0.016 0.305 0.042 0.426 0.571 1.167 1.16 2.325 1.734 3.49 0.095 0.192 0.205 0.268 0.427 0.267 1.332-0.012 2.665-0.007 3.997-0.007zM1.342 20.472c0.601 3.402 1.196 6.775 1.797 10.183 0.932-0.171 1.835-0.317 2.727-0.51 0.425-0.092 0.608-0.464 0.528-0.925-0.347-1.988-0.697-3.976-1.046-5.963-0.144-0.82-0.286-1.639-0.434-2.459-0.101-0.559-0.389-0.854-0.862-0.787-0.893 0.125-1.781 0.299-2.71 0.46z"></path>
<path d="M15.736 16.956c-0.019-0.427 0.178-0.693 0.543-0.739 0.345-0.043 0.657 0.187 0.68 0.607 0.048 0.884 1.029 1.315 1.72 1.127 0.597-0.163 1.020-0.637 0.994-1.163-0.027-0.555-0.517-1.015-1.133-1.111-0.468-0.074-0.961-0.121-1.387-0.308-0.986-0.431-1.478-1.299-1.414-2.316 0.059-0.926 0.722-1.745 1.691-2.075 0.157-0.053 0.261-0.095 0.271-0.308 0.020-0.42 0.296-0.676 0.642-0.661 0.343 0.015 0.582 0.26 0.589 0.674 0.004 0.225 0.142 0.243 0.286 0.297 0.972 0.361 1.564 1.033 1.693 2.080 0.053 0.434-0.175 0.752-0.556 0.795-0.345 0.039-0.618-0.211-0.677-0.623-0.084-0.581-0.413-0.961-0.954-1.104-0.576-0.153-1.196 0.036-1.525 0.463-0.535 0.694-0.054 1.652 0.884 1.798 0.489 0.077 1 0.134 1.446 0.327 0.91 0.395 1.456 1.335 1.391 2.214-0.073 0.998-0.717 1.825-1.687 2.15-0.181 0.060-0.3 0.116-0.308 0.348-0.013 0.319-0.268 0.539-0.571 0.559-0.291 0.019-0.579-0.18-0.619-0.498-0.034-0.26-0.156-0.352-0.387-0.431-0.924-0.318-1.571-1.18-1.612-2.102z"></path>
<path d="M28.609 17.698c-0.008 0.33-0.305 0.618-0.631 0.611-0.336-0.006-0.612-0.294-0.606-0.63s0.294-0.617 0.626-0.611c0.329 0.006 0.619 0.305 0.612 0.629z"></path>
<path d="M9.565 29.503c0.328 0.005 0.617 0.301 0.611 0.628s-0.305 0.618-0.629 0.611c-0.328-0.006-0.617-0.303-0.611-0.629 0.006-0.329 0.301-0.615 0.629-0.61z"></path>
<path d="M4.473 27.832c0.328 0.003 0.614 0.294 0.612 0.625-0.002 0.335-0.284 0.613-0.621 0.611-0.339-0.002-0.611-0.279-0.608-0.62 0.002-0.333 0.287-0.618 0.617-0.615z"></path>
</symbol>
<symbol id="icon-headphones" viewBox="0 0 32 32">
<path d="M24.251 32.001c-0.646-0.131-1.225-0.378-1.659-0.905-0.38-0.461-0.584-0.989-0.585-1.577-0.008-3.343-0.017-6.687 0.003-10.030 0.006-1.063 0.535-1.861 1.515-2.279 0.954-0.407 1.861-0.241 2.647 0.445 0.565 0.493 0.805 1.146 0.831 1.855 0.418 0.185 0.813 0.361 1.217 0.54-0.005 0.004 0.021-0.009 0.021-0.021-0.038-1.623 0.008-3.252-0.139-4.866-0.157-1.721-0.826-3.3-1.779-4.746-0.051-0.077-0.178-0.144-0.272-0.147-0.879-0.023-1.606-0.38-2.233-0.976-1.587-1.505-3.485-2.405-5.613-2.816-2.737-0.528-5.336-0.088-7.8 1.207-0.931 0.489-1.724 1.159-2.506 1.847-0.518 0.455-1.131 0.699-1.82 0.716-0.243 0.006-0.36 0.103-0.474 0.307-0.92 1.641-1.371 3.427-1.664 5.266-0.224 1.406-0.193 2.82-0.182 4.24 0.414-0.184 0.816-0.363 1.242-0.552 0.026-0.709 0.266-1.362 0.831-1.855 0.786-0.685 1.693-0.853 2.647-0.445 0.993 0.425 1.492 1.234 1.519 2.31 0.021 0.823 0.005 1.645 0.005 2.468 0 2.333-0.041 4.667 0.015 6.999 0.035 1.492-0.622 2.718-2.265 3.014-0.167 0-0.333 0-0.5 0-0.019-0.009-0.036-0.025-0.056-0.027-1.222-0.157-2.128-1.173-2.196-2.361-0.005-0.084-0.124-0.203-0.214-0.232-1.094-0.346-1.82-1.057-2.152-2.156-0.050-0.165-0.121-0.223-0.294-0.245-1.481-0.192-2.337-1.17-2.337-2.663-0.005-2.445-0.006-4.893-0.002-7.34 0.002-1.316 0.145-2.617 0.466-3.896 0.451-1.793 1.201-3.451 2.229-4.987 0.087-0.13 0.126-0.326 0.11-0.484-0.11-1.075 0.196-1.999 0.974-2.749 2.747-2.645 6.048-4.137 9.8-4.679 0.492-0.071 0.988-0.121 1.482-0.18 0.625 0 1.25 0 1.875 0 0.080 0.018 0.16 0.041 0.24 0.053 0.905 0.13 1.823 0.201 2.714 0.398 3.154 0.698 5.943 2.112 8.284 4.367 0.776 0.748 1.139 1.654 1.008 2.73-0.031 0.25 0.027 0.434 0.16 0.632 1.233 1.827 2.049 3.826 2.411 6.002 0.103 0.623 0.164 1.254 0.244 1.881 0 2.916 0 5.834 0 8.75-0.010 0.018-0.027 0.035-0.031 0.054-0.196 1.185-1.147 2.041-2.32 2.115-0.185 0.012-0.236 0.098-0.283 0.255-0.333 1.083-1.047 1.797-2.13 2.126-0.183 0.055-0.241 0.136-0.254 0.317-0.036 0.509-0.218 0.964-0.536 1.37-0.435 0.555-1.029 0.816-1.696 0.951-0.165 0.001-0.332 0.001-0.498 0.001zM16.309 1.245c-3.555 0.044-6.57 0.896-9.317 2.645-0.924 0.588-1.809 1.242-2.524 2.078-0.892 1.042-0.366 2.636 0.961 2.984 0.73 0.191 1.331-0.060 1.887-0.548 0.578-0.506 1.165-1.020 1.814-1.422 2.622-1.625 5.48-2.241 8.546-1.857 1.597 0.2 3.1 0.691 4.517 1.452 1.007 0.541 1.883 1.255 2.733 2.011 0.563 0.5 1.245 0.563 1.93 0.266 1.259-0.545 1.492-2.152 0.453-3.136-3.168-3.002-6.991-4.359-11.002-4.473zM8.751 24.5c0-0.229 0-0.459 0-0.688 0-1.427 0.006-2.853-0.003-4.28-0.005-0.787-0.625-1.351-1.375-1.277-0.665 0.066-1.119 0.605-1.121 1.347-0.003 2.187-0.001 4.373-0.001 6.561 0 1.094-0.004 2.187 0.002 3.281 0.003 0.601 0.344 1.074 0.868 1.239 0.831 0.261 1.623-0.337 1.627-1.247 0.009-1.645 0.003-3.291 0.003-4.936zM25.751 24.501c0-1.645 0.005-3.291-0.002-4.936-0.003-0.801-0.589-1.363-1.345-1.312-0.676 0.047-1.151 0.595-1.152 1.348-0.002 3.197-0.001 6.394-0.001 9.592 0 0.135-0.004 0.271 0.008 0.405 0.045 0.518 0.4 0.948 0.892 1.091 0.825 0.239 1.593-0.353 1.598-1.252 0.008-1.645 0.002-3.291 0.002-4.936zM3.484 9.19c-1.121 1.757-1.842 3.655-2.088 5.706-0.294 2.446-0.106 4.909-0.134 7.365 0 0.007 0.009 0.015 0.004 0.007 0.402-0.108 0.799-0.213 1.221-0.327-0.009 0.018 0.007 0 0.008-0.019 0.004-0.156 0.004-0.313 0.007-0.468 0.032-1.914-0.099-3.832 0.186-5.738 0.249-1.664 0.663-3.28 1.339-4.824 0.14-0.32 0.309-0.626 0.456-0.919-0.343-0.269-0.66-0.517-0.999-0.784zM27.543 9.963c0.036 0.069 0.070 0.144 0.111 0.214 1.285 2.156 1.87 4.495 1.849 6.998-0.013 1.489-0.002 2.978-0.002 4.467 0 0.112 0 0.224 0 0.297 0.436 0.116 0.832 0.223 1.24 0.331 0.002-0.044 0.009-0.103 0.009-0.163 0-1.77 0.008-3.541-0.003-5.311-0.012-2.024-0.423-3.967-1.259-5.812-0.281-0.62-0.628-1.21-0.946-1.817-0.354 0.281-0.661 0.525-1 0.795zM4.987 20.882c-0.715 0.262-1.209 0.881-1.223 1.613-0.024 1.331-0.023 2.663-0.001 3.994 0.013 0.748 0.54 1.407 1.223 1.611 0-2.401 0-4.798 0-7.217zM27.023 20.896c0 2.415 0 4.809 0 7.211 0.712-0.255 1.206-0.888 1.217-1.635 0.020-1.32 0.021-2.642-0.001-3.963-0.013-0.749-0.535-1.404-1.216-1.613zM2.486 23.265c-0.715 0.016-1.252 0.577-1.232 1.269 0.020 0.668 0.564 1.196 1.232 1.188 0-0.819 0-1.638 0-2.456zM29.511 25.733c0.755-0.045 1.277-0.612 1.234-1.313-0.041-0.659-0.605-1.184-1.234-1.138 0 0.809 0 1.617 0 2.45z"></path>
<path d="M14.734 25.401c0.506-1.768 1.011-3.536 1.516-5.303 0.123-0.43 0.243-0.86 0.371-1.288 0.112-0.376 0.344-0.57 0.654-0.558 0.297 0.012 0.51 0.207 0.604 0.577 0.352 1.391 0.701 2.782 1.051 4.173 0.020 0.079 0.046 0.156 0.074 0.247 0.357 0 0.7-0.006 1.043 0.002 0.412 0.009 0.688 0.253 0.699 0.605 0.012 0.359-0.276 0.632-0.698 0.641-0.489 0.009-0.978 0.008-1.468 0.001-0.4-0.006-0.604-0.171-0.706-0.572-0.214-0.835-0.423-1.672-0.654-2.589-0.052 0.146-0.084 0.222-0.107 0.3-0.558 1.948-1.116 3.897-1.674 5.845-0.009 0.030-0.014 0.061-0.023 0.091-0.135 0.461-0.344 0.672-0.668 0.672-0.312 0-0.518-0.195-0.666-0.639-0.319-0.956-0.642-1.912-0.952-2.871-0.056-0.175-0.131-0.252-0.324-0.24-0.29 0.017-0.583 0.012-0.874 0.002-0.405-0.015-0.682-0.278-0.679-0.629 0.003-0.352 0.281-0.609 0.687-0.616 0.489-0.009 0.978-0.005 1.468-0.001 0.395 0.004 0.583 0.142 0.715 0.525 0.185 0.538 0.362 1.080 0.542 1.62 0.023 0.002 0.045 0.005 0.067 0.007z"></path>
<path d="M16.044 2.41c1.173 0.151 2.348 0.291 3.519 0.458 0.438 0.063 0.66 0.37 0.593 0.727-0.070 0.376-0.386 0.566-0.834 0.482-1.51-0.284-3.029-0.415-4.563-0.271-1.277 0.12-2.534 0.336-3.745 0.777-0.127 0.046-0.253 0.096-0.384 0.13-0.324 0.086-0.634-0.059-0.748-0.343-0.128-0.32-0.012-0.667 0.326-0.805 0.451-0.184 0.914-0.346 1.384-0.475 1.451-0.398 2.933-0.591 4.439-0.595 0.004-0.028 0.008-0.056 0.012-0.085z"></path>
<path d="M21.519 4.696c-0.338-0.003-0.613-0.283-0.609-0.62 0.004-0.332 0.292-0.617 0.621-0.613 0.332 0.004 0.611 0.291 0.607 0.627-0.003 0.34-0.279 0.609-0.619 0.606z"></path>
</symbol>
<symbol id="icon-truck" viewBox="0 0 32 32">
<path d="M0 7.024c0.183-0.26 0.432-0.333 0.748-0.332 6.613 0.008 13.226 0.005 19.839 0.006 0.592 0 0.739 0.146 0.74 0.733 0.001 0.974 0 1.947 0 2.955 0.142 0.008 0.261 0.020 0.381 0.020 1.572 0.002 3.145 0.008 4.717-0.004 0.373-0.003 0.616 0.126 0.819 0.443 1.51 2.361 3.037 4.71 4.546 7.072 0.12 0.188 0.196 0.44 0.199 0.662 0.016 1.816 0.009 3.631 0.008 5.446 0 0.569-0.169 0.734-0.751 0.734-0.822 0.001-1.643 0-2.476 0-0.058 0.191-0.104 0.371-0.166 0.543-0.474 1.307-1.74 2.157-3.118 2.098-1.428-0.061-2.618-1.002-2.978-2.371-0.048-0.185-0.099-0.277-0.319-0.276-3.801 0.008-7.602 0.005-11.403 0.006-0.041 0-0.082 0.005-0.136 0.009-0.476 1.662-1.52 2.676-3.315 2.615-1.66-0.057-2.618-1.052-3.052-2.624-1.172 0-2.349-0.008-3.524 0.005-0.331 0.004-0.589-0.081-0.761-0.371 0.001-5.789 0.001-11.579 0.001-17.37zM1.087 7.771c0 4.615 0 9.194 0 13.812 0.89 0 1.758 0 2.631 0 0 0.366 0 0.692 0 1.055-0.888 0-1.758 0-2.627 0 0 0.372 0 0.706 0 1.060 0.555 0 1.085 0 1.615 0s1.058 0 1.576 0c0.63-1.774 1.616-2.62 3.084-2.66 0.663-0.017 1.278 0.15 1.835 0.51 0.781 0.507 1.236 1.24 1.429 2.128 3.216 0 6.409 0 9.606 0 0-0.35 0-0.678 0-1.049-3.017 0-6.019 0-9.021 0 0-0.37 0-0.698 0-1.058 3.015 0 6.010 0 9.025 0 0-3.907 0-7.781 0-11.69-6.036 0-12.059 0-18.086 0 0-0.372 0-0.707 0-1.067 6.040 0 12.056 0 18.084 0 0-0.361 0-0.695 0-1.041-6.393 0.001-12.763 0.001-19.151 0.001zM29.34 21.545c0.551 0 1.069 0 1.594 0 0-0.946 0-1.838 0-2.73 0-0.424-0.015-0.439-0.439-0.439-2.458 0-4.916 0.001-7.373-0.001-0.559 0-0.725-0.166-0.726-0.724-0.002-1.463-0.002-2.926 0-4.388 0.001-0.556 0.169-0.723 0.728-0.724 1.177-0.002 2.354-0.001 3.531-0.001 0.11 0 0.22 0 0.399 0-0.202-0.318-0.378-0.57-0.528-0.836-0.099-0.177-0.221-0.236-0.425-0.235-1.479 0.009-2.957 0.004-4.437 0.005-0.092 0-0.184 0.010-0.285 0.016 0 4.075 0 8.132 0 12.193 0.368 0 0.707 0 1.039 0 0.652-1.778 1.62-2.638 3.087-2.633 1.774 0.006 2.817 0.981 3.277 2.633 0.714 0 1.418 0 2.131 0 0-0.354 0-0.69 0-1.062-0.537 0-1.051 0-1.571 0-0.001-0.358-0.001-0.677-0.001-1.074zM30.101 17.302c-0.024-0.066-0.030-0.096-0.046-0.121-0.736-1.142-1.467-2.287-2.216-3.419-0.061-0.092-0.237-0.151-0.361-0.152-1.227-0.011-2.456-0.007-3.683-0.006-0.1 0-0.201 0.008-0.304 0.012 0 1.245 0 2.459 0 3.686 2.212 0 4.394 0 6.609 0zM25.593 26.343c1.171 0.004 2.132-0.941 2.142-2.106 0.010-1.155-0.951-2.128-2.115-2.14-1.18-0.012-2.154 0.952-2.152 2.128 0.003 1.171 0.949 2.114 2.126 2.118zM7.45 26.343c1.176 0.008 2.129-0.921 2.15-2.095 0.021-1.165-0.957-2.151-2.133-2.151-1.165 0-2.128 0.956-2.136 2.119-0.008 1.161 0.947 2.119 2.119 2.128z"></path>
<path d="M0 4.596c0.34 0 0.679 0 1.042 0 0 0.326 0 0.66 0 1.059-0.346 0-0.694 0-1.042 0 0-0.354 0-0.706 0-1.059z"></path>
<path d="M9.603 4.597c0 0.301 0.012 0.581-0.008 0.857-0.005 0.063-0.11 0.137-0.185 0.173-0.059 0.028-0.143 0.007-0.216 0.007-2.217 0-4.434 0-6.651 0-0.123 0-0.246 0-0.391 0 0-0.355 0-0.68 0-1.036 2.466 0 4.934 0 7.452 0z"></path>
<path d="M26.115 23.724c0 0.344 0 0.671 0 1.017-0.348 0-0.683 0-1.034 0 0-0.339 0-0.665 0-1.017 0.333 0 0.668 0 1.034 0z"></path>
<path d="M7.985 23.722c0 0.349 0 0.675 0 1.021-0.341 0-0.669 0-1.024 0 0-0.329 0-0.663 0-1.021 0.327 0 0.662 0 1.024 0z"></path>
</symbol>
<symbol id="icon-basket-small" viewBox="0 0 32 32">
<path d="M0 0h32v32h-32v-32z"></path>
</symbol>
<symbol id="icon-star-dark-border" viewBox="0 0 32 32">
<path d="M30.603 12.732l-10.5-0.905-4.103-9.667-4.104 9.682-10.5 0.891 7.973 6.907-2.395 10.266 9.025-5.447 9.025 5.447-2.38-10.266 7.959-6.907zM16 21.727l-5.491 3.315 1.46-6.25-4.848-4.206 6.396-0.555 2.483-5.885 2.497 5.9 6.396 0.555-4.848 4.206 1.46 6.25-5.505-3.33z"></path>
</symbol>
<symbol id="icon-star-yellow-white" viewBox="0 0 32 32">
<path fill="#ffc600" style="fill: var(--color4, #ffc600)" d="M32 12.384l-11.504-0.992-4.496-10.592-4.496 10.608-11.504 0.976 8.736 7.568-2.624 11.248 9.888-5.968 9.888 5.968-2.608-11.248 8.72-7.568zM16 22.24v-14.88l2.736 6.464 7.008 0.608-5.312 4.608 1.6 6.848-6.032-3.648z"></path>
</symbol>
<symbol id="icon-star-yellow" viewBox="0 0 32 32">
<path fill="#ffc600" style="fill: var(--color4, #ffc600)" d="M16 25.232l9.888 5.968-2.624-11.248 8.736-7.568-11.504-0.976-4.496-10.608-4.496 10.608-11.504 0.976 8.736 7.568-2.624 11.248 9.888-5.968z"></path>
</symbol>
<symbol id="icon-vector-left" viewBox="0 0 32 32">
<path d="M21.333 32l3.76-3.76-12.213-12.24 12.213-12.24-3.76-3.76-16 16 16 16z"></path>
</symbol>
<symbol id="icon-decorative-element-2" viewBox="0 0 32 32">
<path d="M0.32 19.333c0.005 0 0.009-0.004 0.009-0.009s-0.004-0.009-0.009-0.009c-0.005 0-0.009 0.004-0.009 0.009s0.004 0.009 0.009 0.009z"></path>
<path d="M0.009 17.123c0.006 0 0.009-0.003 0.009-0.009s-0.003-0.009-0.009-0.009c-0.006-0.003-0.009 0.003-0.009 0.009s0.003 0.009 0.009 0.009z"></path>
<path d="M0.009 14.892c0.006 0 0.009-0.003 0.009-0.009s-0.003-0.009-0.009-0.009c-0.006-0.003-0.009 0.003-0.009 0.006 0 0.006 0.003 0.012 0.009 0.012z"></path>
<path d="M0.32 12.682c0.006 0 0.009-0.003 0.009-0.009s-0.003-0.009-0.009-0.009c-0.006 0-0.009 0.003-0.009 0.009 0 0.003 0.003 0.009 0.009 0.009z"></path>
<path d="M0.937 10.534c0.005 0 0.009-0.004 0.009-0.009s-0.004-0.009-0.009-0.009c-0.005 0-0.009 0.004-0.009 0.009s0.004 0.009 0.009 0.009z"></path>
<path d="M1.844 8.496c0.005 0 0.009-0.004 0.009-0.009s-0.004-0.009-0.009-0.009c-0.005 0-0.009 0.004-0.009 0.009s0.004 0.009 0.009 0.009z"></path>
<path d="M3.027 6.603c0.005 0 0.009-0.004 0.009-0.009s-0.004-0.009-0.009-0.009c-0.005 0-0.009 0.004-0.009 0.009s0.004 0.009 0.009 0.009z"></path>
<path d="M4.464 4.894c0.006 0 0.009-0.003 0.009-0.009s-0.003-0.009-0.009-0.009c-0.006 0-0.009 0.003-0.009 0.009-0.003 0.006 0.003 0.009 0.009 0.009z"></path>
<path d="M6.124 3.401c0.005 0 0.009-0.004 0.009-0.009s-0.004-0.009-0.009-0.009c-0.005 0-0.009 0.004-0.009 0.009s0.004 0.009 0.009 0.009z"></path>
<path d="M7.974 2.154c0.005 0 0.009-0.004 0.009-0.009s-0.004-0.009-0.009-0.009c-0.005 0-0.009 0.004-0.009 0.009s0.004 0.009 0.009 0.009z"></path>
<path d="M9.981 1.176c0.006 0 0.009-0.003 0.009-0.009s-0.003-0.009-0.009-0.009c-0.006 0-0.009 0.003-0.009 0.009 0 0.003 0.003 0.009 0.009 0.009z"></path>
<path d="M12.106 0.483c0.005 0 0.009-0.004 0.009-0.009s-0.004-0.009-0.009-0.009c-0.005 0-0.009 0.004-0.009 0.009s0.004 0.009 0.009 0.009z"></path>
<path d="M14.306 0.098c0.006 0 0.009-0.003 0.009-0.009s-0.003-0.009-0.009-0.009c-0.006 0-0.009 0.003-0.009 0.009-0.003 0.003 0.003 0.009 0.009 0.009z"></path>
<path d="M16.538 0.021c0.006 0 0.009-0.003 0.009-0.009s-0.006-0.012-0.009-0.012c-0.006 0-0.009 0.003-0.009 0.009s0.003 0.012 0.009 0.012z"></path>
<path d="M18.758 0.252c0.006 0 0.009-0.003 0.009-0.009s-0.003-0.009-0.009-0.009c-0.006 0-0.009 0.003-0.009 0.009s0.003 0.009 0.009 0.009z"></path>
<path d="M20.925 0.794c0.006 0 0.009-0.003 0.009-0.009s-0.003-0.009-0.009-0.009c-0.006 0-0.009 0.003-0.009 0.009 0 0.003 0.003 0.009 0.009 0.009z"></path>
<path d="M22.994 1.629c0.006 0 0.009-0.003 0.009-0.009s-0.003-0.009-0.009-0.009c-0.006 0-0.009 0.003-0.009 0.009 0 0.003 0.006 0.009 0.009 0.009z"></path>
<path d="M24.93 2.746c0.006 0 0.009-0.003 0.009-0.009s-0.003-0.009-0.009-0.009c-0.006 0-0.009 0.003-0.009 0.009-0.003 0.003 0.003 0.009 0.009 0.009z"></path>
<path d="M26.688 4.118c0.006 0 0.009-0.003 0.009-0.009s-0.003-0.009-0.009-0.009c-0.006 0-0.009 0.003-0.009 0.009s0.006 0.009 0.009 0.009z"></path>
<path d="M28.241 5.723c0.006 0 0.009-0.003 0.009-0.009s-0.003-0.009-0.009-0.009c-0.006 0-0.009 0.003-0.009 0.009-0.003 0.006 0.003 0.009 0.009 0.009z"></path>
<path d="M29.554 7.53c0.006 0 0.009-0.003 0.009-0.009s-0.003-0.009-0.009-0.009c-0.006 0-0.009 0.003-0.009 0.009-0.003 0.003 0.003 0.009 0.009 0.009z"></path>
<path d="M30.601 9.506c0.009 0 0.015-0.006 0.015-0.015s-0.006-0.015-0.015-0.015c-0.009 0-0.015 0.006-0.015 0.015 0 0.006 0.009 0.015 0.015 0.015z"></path>
<path d="M31.366 11.604c0.008 0 0.015-0.007 0.015-0.015s-0.007-0.015-0.015-0.015c-0.008 0-0.015 0.007-0.015 0.015s0.007 0.015 0.015 0.015z"></path>
<path d="M31.831 13.784c0.009 0 0.015-0.006 0.015-0.015s-0.006-0.015-0.015-0.015c-0.009 0-0.015 0.006-0.015 0.015s0.006 0.015 0.015 0.015z"></path>
</symbol>
<symbol id="icon-headphone" viewBox="0 0 32 32">
<path d="M0 0h32v32h-32v-32z"></path>
</symbol>
<symbol id="icon-shopping-cart" viewBox="0 0 32 32">
<path fill="none" stroke="#cda861" style="stroke: var(--color5, #cda861)" stroke-linejoin="round" stroke-linecap="round" stroke-miterlimit="4" stroke-width="2.4" d="M12 29.333c0.736 0 1.333-0.597 1.333-1.333s-0.597-1.333-1.333-1.333c-0.736 0-1.333 0.597-1.333 1.333s0.597 1.333 1.333 1.333z"></path>
<path fill="none" stroke="#cda861" style="stroke: var(--color5, #cda861)" stroke-linejoin="round" stroke-linecap="round" stroke-miterlimit="4" stroke-width="2.4" d="M26.667 29.333c0.736 0 1.333-0.597 1.333-1.333s-0.597-1.333-1.333-1.333c-0.736 0-1.333 0.597-1.333 1.333s0.597 1.333 1.333 1.333z"></path>
<path fill="none" stroke="#cda861" style="stroke: var(--color5, #cda861)" stroke-linejoin="round" stroke-linecap="round" stroke-miterlimit="4" stroke-width="2.4" d="M1.333 1.333h5.333l3.573 17.853c0.122 0.614 0.456 1.165 0.943 1.558s1.098 0.601 1.723 0.589h12.96c0.626 0.012 1.236-0.196 1.723-0.589s0.821-0.944 0.943-1.558l2.133-11.187h-22.667"></path>
</symbol>
<symbol id="icon-search" viewBox="0 0 32 32">
<path fill="none" stroke-linejoin="round" stroke-linecap="round" stroke-miterlimit="4" stroke-width="2.4" d="M14.667 25.333c5.891 0 10.667-4.776 10.667-10.667s-4.776-10.667-10.667-10.667c-5.891 0-10.667 4.776-10.667 10.667s4.776 10.667 10.667 10.667z"></path>
<path stroke-linejoin="round" stroke-linecap="round" stroke-miterlimit="4" stroke-width="2.4" d="M28 28l-5.8-5.8"></path>
</symbol>
</defs>
</svg>
